<svg width="24" height="24" viewBox="0 0 24 24" fill="none" xmlns="http://www.w3.org/2000/svg">
<path d="M21.447 6.10502L15.447 3.10502C15.166 2.96402 14.834 2.96402 14.552 3.10502L9 5.88202L3.447 3.10502C3.137 2.95102 2.768 2.96602 2.474 3.14902C2.18 3.33202 2 3.65302 2 4.00002V17C2 17.379 2.214 17.725 2.553 17.895L8.553 20.895C8.834 21.036 9.166 21.036 9.448 20.895L15 18.118L20.553 20.894C20.694 20.965 20.847 21 21 21C21.183 21 21.365 20.95 21.525 20.851C21.82 20.668 22 20.347 22 20V7.00002C22 6.62102 21.786 6.27502 21.447 6.10502ZM10 7.61802L14 5.61802V16.382L10 18.382V7.61802ZM4 5.61802L8 7.61802V18.382L4 16.382V5.61802ZM20 18.382L16 16.382V5.61802L20 7.61802V18.382Z" fill="white"/>
</svg>
