<svg width="187" height="38" viewBox="0 0 187 38" fill="none" xmlns="http://www.w3.org/2000/svg">
<g filter="url(#filter0_d)">
<path d="M181.587 15.1643C180.952 13.9047 179.841 12.7455 178.647 11.634C179.402 11.6107 180.151 11.487 180.905 11.4637C179.286 10.411 177.113 9.38871 175.493 8.33704C174.978 8.87251 174.407 9.3806 173.891 9.91607C175.658 12.5539 177.426 15.1947 178.834 17.9045C179.062 18.3457 179.284 18.8 179.225 19.2594C179.166 19.7188 178.768 20.1935 178.054 20.3841C173.981 21.4703 171.308 18.7047 170.374 17.7707C170.227 18.1753 170.076 18.584 169.777 18.9593C169.476 19.3335 169.009 19.6763 168.374 19.8568C167.737 20.0363 166.921 20.0241 166.376 19.7614C165.831 19.4978 165.573 18.9491 165.644 18.3173C165.263 19.1175 164.201 19.7949 162.874 20.085C161.547 20.375 159.987 20.2705 158.805 19.8132C157.79 19.4187 157.092 18.8061 156.271 18.2798C155.447 17.7524 154.355 17.2778 153.139 17.3173C151.483 17.3701 150.347 18.3376 149.881 19.2706C149.175 20.6874 149.348 22.1984 150.478 23.5168C147.459 23.5473 144.625 24.4093 142.234 25.4914C139.843 26.5735 137.785 27.8868 135.47 29.0247C134.895 29.3076 134.286 29.5845 133.572 29.7194C132.857 29.8543 132.008 29.8218 131.442 29.5328C130.562 29.0815 130.719 28.2621 131.046 27.6039C131.664 26.3625 132.586 25.2267 133.823 24.172C134.823 24.4549 136.008 24.5371 137.091 24.3768C139.041 24.0888 140.582 23.1274 141.253 22.0169C141.926 20.9064 141.805 19.6702 141.236 18.5394C140.665 17.4096 139.669 16.3701 138.598 15.3722C139.274 15.3519 139.947 15.2404 140.624 15.2201C139.17 14.2759 137.222 13.3591 135.769 12.4159C135.307 12.8956 134.795 13.351 134.333 13.8317C135.916 16.1977 137.503 18.5658 138.766 20.9967C138.972 21.3922 139.17 21.7999 139.117 22.2126C139.063 22.6244 138.707 23.0473 138.065 23.2207C135.923 23.7998 134.453 22.2522 133.811 21.3131C132.113 18.8284 130.977 16.2129 130.441 13.5548C129.176 13.5954 128.306 14.3885 128.264 15.1308C128.223 15.8732 128.769 16.576 129.221 17.2697C129.788 18.1418 130.219 19.0444 130.506 19.9622C130.705 20.5971 130.835 21.2512 130.629 21.8861C130.425 22.5199 129.842 23.1365 128.892 23.4631C127.236 24.032 124.961 23.5077 123.903 22.5706C122.845 21.6325 122.768 20.4237 123.051 19.3112C123.333 18.1997 123.937 17.1186 124.121 15.9989C124.197 15.5294 124.112 14.9615 123.408 14.7343C122.871 14.5619 122.169 14.6775 121.721 14.9209C121.273 15.1643 121.029 15.5091 120.835 15.8489C119.673 17.8772 119.816 20.0779 119.091 22.1761C118.802 23.0108 118.216 23.9347 116.861 24.243C114.598 24.7572 113.389 23.0037 113.14 21.9814C112.965 21.2593 113.067 20.5302 113.252 19.8061C113.308 19.5961 112.809 19.5059 112.655 19.6986C111.706 20.8861 111.501 22.2786 112.131 23.5381C112.335 24.1223 112.699 24.6872 113.225 25.2003C113.83 25.7916 114.804 26.3605 115.979 26.323C117.377 26.2794 118.247 25.4366 118.797 24.6821C119.982 23.0554 120.844 21.3476 121.37 19.6053C121.134 20.8882 121.25 22.2522 121.828 23.4438C122.212 24.2399 122.82 25.0482 123.965 25.533C125.427 26.1536 127.522 26.0938 129.089 25.5685C130.511 25.0928 131.539 24.2937 132.242 23.4215C132.487 23.6142 132.783 23.7815 133.113 23.9235C131.47 25.1557 130.333 26.6191 129.842 28.1566C129.619 28.8503 129.55 29.62 130.21 30.2092C131.212 31.1047 133.425 31.1899 135.186 30.911C137.852 30.4881 140.124 29.4831 142.269 28.4649C144.414 27.4467 146.558 26.3747 149.122 25.7733C151.686 25.173 154.994 25.3565 157.213 26.3189C157.982 25.7317 158.791 24.9924 158.321 24.3059C157.857 23.6274 156.435 23.4185 155.238 23.2106C154.136 23.0189 153.039 22.741 152.243 22.2532C151.447 21.7664 151.013 21.0332 151.395 20.3973C151.778 19.7614 153.125 19.3396 154.16 19.6347C155.092 19.9014 155.418 20.5667 155.976 21.0788C156.902 21.9236 158.701 22.4084 160.398 22.2684C162.094 22.1295 163.796 21.877 164.288 20.9145C164.699 21.878 166.499 22.5605 168.168 22.3851C169.836 22.2096 171.386 21.2685 171.203 20.2807C172.239 21.4459 174.793 21.9946 176.967 21.6731C179.14 21.3516 180.858 20.2807 181.607 19.0414C182.357 17.8031 182.223 16.4249 181.587 15.1643Z" fill="url(#paint0_linear)"/>
<path d="M173.116 22.745C172.512 23.2784 172.018 23.8555 171.646 24.4579C172.58 24.7033 173.464 25.113 174.398 25.3595C175.023 24.8007 175.696 24.2916 176.319 23.7328C175.45 23.392 174.118 22.9194 173.116 22.745Z" fill="url(#paint1_linear)"/>
<path d="M78.175 18.6184C77.3065 18.2776 75.9744 17.805 74.9727 17.6306C74.3671 18.1641 73.8723 18.7411 73.5004 19.3435C74.4363 19.5889 75.3204 19.9987 76.2546 20.2451C76.8775 19.6863 77.5505 19.1772 78.175 18.6184Z" fill="url(#paint2_linear)"/>
<path d="M21.2314 29.1483C22.1657 29.3938 23.0497 29.8035 23.9857 30.0499C24.6085 29.4901 25.2815 28.982 25.9044 28.4232C25.0376 28.0825 23.7054 27.6088 22.7037 27.4354C22.0982 27.9689 21.6034 28.5449 21.2314 29.1483Z" fill="url(#paint3_linear)"/>
<path d="M26.695 28.3037C27.6292 28.5491 28.5133 28.9589 29.4493 29.2053C30.0721 28.6465 30.7451 28.1374 31.3696 27.5786C30.5012 27.2378 29.169 26.7653 28.1673 26.5908C27.5618 27.1243 27.067 27.7013 26.695 28.3037Z" fill="url(#paint4_linear)"/>
<path d="M144.996 23.2785C145.338 23.2785 145.615 23.3251 145.959 23.3251C147.227 17.3873 146.539 11.0793 143.747 5.32295C144.42 5.9142 145.544 6.21135 146.693 6.43547C146.167 4.81689 145.378 2.54823 143.67 1.23998C143.186 0.8688 142.307 0.496607 141.603 0.278564C141.144 1.52597 139.885 2.76121 140.226 4.0218C141.712 9.50024 144.888 16.9289 144.996 23.2785Z" fill="url(#paint5_linear)"/>
<path d="M115.958 22.1265C117.024 16.573 116.444 10.6726 114.1 5.28952C114.664 5.84224 115.609 6.1191 116.574 6.33004C116.133 4.81592 115.47 2.6933 114.034 1.46922C113.628 1.12238 112.891 0.774523 112.299 0.570679C111.913 1.73695 110.854 2.89207 111.142 4.07153C112.391 9.19603 115.058 16.144 115.148 22.0829C115.436 22.0829 115.669 22.1265 115.958 22.1265Z" fill="url(#paint6_linear)"/>
<path d="M67.4434 24.1213C67.5039 24.1851 67.5766 24.245 67.6614 24.3018C69.7236 23.0168 69.7496 21.162 69.4849 19.5119C69.189 17.6591 68.7911 15.8245 68.5627 13.9666C68.369 12.3885 68.1181 10.8125 67.7548 9.24568C67.4711 8.01653 67.459 5.95375 66.3586 4.87571C66.9226 5.42842 67.8673 5.7063 68.8326 5.91622C68.3915 4.4021 67.7288 2.28049 66.2929 1.05641C65.8863 0.709573 65.1476 0.361719 64.5576 0.15686C64.1718 1.32415 63.113 2.47927 63.4002 3.65974C64.2081 6.97398 65.0386 10.2862 65.7496 13.6086C66.1528 15.4969 66.5247 17.3883 66.8257 19.2827C66.9693 20.1904 67.0974 21.0991 67.1994 22.0078C67.2704 22.6507 66.8742 23.527 67.4434 24.1213Z" fill="url(#paint7_linear)"/>
<path d="M89.699 8.47291C89.1696 9.34204 88.9776 10.2811 89.1368 11.1989C89.1835 11.4606 89.2613 11.7263 89.4638 11.9616C89.6662 12.1969 90.0122 12.4007 90.4482 12.4677C90.9724 12.5498 91.5416 12.418 91.9481 12.207C92.3547 11.9961 92.6332 11.7141 92.9014 11.4383C93.0865 11.8196 94.0398 12.0306 94.7145 11.9991C95.3892 11.9687 95.993 11.705 96.3494 11.3683C96.7075 11.0306 96.8477 10.628 96.884 10.2314C96.9653 9.36739 96.5778 8.49015 95.7889 7.75793C95.4031 8.10985 95.0363 8.51855 94.6505 8.87046C95.2526 9.1889 95.6903 9.76697 95.5847 10.2375C95.5225 10.5225 95.237 10.8318 94.7508 10.8744C94.4498 10.9008 94.1436 10.8136 93.9377 10.6817C93.7336 10.5499 93.6159 10.3785 93.5346 10.2071C93.2526 9.62296 93.3253 9.0023 93.3997 8.39685C93.0623 8.59258 92.7561 8.91711 92.6298 9.18586C92.5225 9.41607 92.5381 9.71525 92.5571 9.95459C92.5761 10.1939 92.564 10.4404 92.4118 10.6625C92.2578 10.8846 91.9395 11.0793 91.5364 11.1209C91.071 11.1695 90.5952 10.9981 90.3495 10.7598C90.1056 10.5225 90.0537 10.2335 90.0727 9.9556C90.1073 9.49416 90.3253 9.03881 90.7059 8.63416C90.4585 8.53275 89.9464 8.57433 89.699 8.47291Z" fill="url(#paint8_linear)"/>
<path d="M125.043 12.7496C125.245 12.9848 125.591 13.1887 126.027 13.2556C126.551 13.3378 127.121 13.2059 127.527 12.995C127.934 12.784 128.212 12.5021 128.482 12.2263C128.665 12.6086 129.619 12.8185 130.293 12.7881C130.97 12.7567 131.572 12.493 131.928 12.1563C132.287 11.8186 132.427 11.417 132.465 11.0204C132.546 10.1554 132.157 9.27812 131.368 8.5459C130.982 8.89781 130.615 9.30651 130.229 9.65842C130.832 9.97686 131.269 10.5549 131.164 11.0255C131.101 11.3115 130.816 11.6198 130.33 11.6634C130.029 11.6898 129.723 11.6015 129.518 11.4697C129.313 11.3379 129.195 11.1675 129.114 10.9951C128.832 10.4109 128.904 9.79026 128.979 9.18481C128.641 9.38054 128.337 9.70507 128.21 9.97382C128.101 10.205 128.119 10.5042 128.136 10.7425C128.155 10.9819 128.143 11.2283 127.991 11.4504C127.837 11.6725 127.518 11.8672 127.115 11.9088C126.65 11.9575 126.174 11.7861 125.93 11.5488C125.685 11.3105 125.633 11.0214 125.652 10.7436C125.686 10.2821 125.904 9.82677 126.285 9.42314C126.037 9.32071 125.525 9.36229 125.278 9.26087C124.749 10.13 124.557 11.0691 124.717 11.9869C124.762 12.2486 124.84 12.5143 125.043 12.7496Z" fill="url(#paint9_linear)"/>
<path d="M161.116 14.3966C160.739 13.9565 161.494 13.3267 162.165 13.0305C162.834 12.7344 163.72 12.6604 164.559 12.6766C165.073 12.6857 165.615 12.7334 166.011 12.9251C166.523 13.1725 166.663 13.6117 166.528 13.992C166.393 14.3723 166.198 14.8063 165.841 15.1349C167.073 14.5416 167.976 13.7171 168.388 12.8145C168.563 12.4302 168.635 11.989 168.251 11.6604C167.853 11.3197 167.097 11.2051 166.402 11.1452C165.243 11.0459 164.04 11.0286 162.923 11.2355C161.807 11.4424 160.786 11.8998 160.348 12.5367C159.912 13.1725 160.177 13.9859 161.116 14.3966Z" fill="url(#paint10_linear)"/>
<path d="M80.1508 4.5979C79.7736 4.15776 80.5297 3.52797 81.1992 3.23184C81.8687 2.93571 82.7545 2.86167 83.5936 2.8779C84.1075 2.88703 84.6507 2.93469 85.0452 3.12637C85.5573 3.37382 85.6974 3.81295 85.5624 4.19325C85.4292 4.57356 85.232 5.00863 84.8773 5.3362C86.1091 4.74292 87.0122 3.91943 87.4223 3.01582C87.597 2.63146 87.6697 2.19031 87.2856 1.86172C86.8894 1.52097 86.1316 1.40637 85.4361 1.34653C84.2787 1.24715 83.0746 1.22991 81.9587 1.43679C80.8428 1.64368 79.8203 2.10106 79.3844 2.73795C78.9467 3.37382 79.2131 4.18818 80.1508 4.5979Z" fill="url(#paint11_linear)"/>
<path d="M25.6241 8.97084C25.2469 8.53171 26.003 7.90192 26.6725 7.60579C27.3438 7.30865 28.2278 7.23563 29.0669 7.25084C29.5808 7.26098 30.124 7.30763 30.5202 7.49931C31.0306 7.74676 31.1707 8.18589 31.0375 8.56721C30.9025 8.94751 30.7053 9.38157 30.3506 9.71015C31.5825 9.11586 32.4855 8.29237 32.8956 7.38978C33.072 7.0044 33.143 6.56325 32.7589 6.23466C32.3627 5.89492 31.6049 5.78032 30.9095 5.72049C29.752 5.62009 28.5479 5.60386 27.432 5.81075C26.3161 6.01763 25.2936 6.474 24.8577 7.11089C24.4217 7.74777 24.6864 8.56112 25.6241 8.97084Z" fill="url(#paint12_linear)"/>
<path d="M165.736 30.5631C172.239 28.2012 173.981 27.6637 178.924 26.7033V26.4294C178.986 26.0897 178.969 25.6627 179.03 25.323C173.909 26.5136 169.054 28.0957 164.623 30.0165C165.021 30.1595 165.34 30.4201 165.736 30.5631Z" fill="url(#paint13_linear)"/>
<path d="M145.686 32.2041C152.475 29.7376 154.297 29.1768 159.457 28.1728V27.8868C159.521 27.5319 159.504 27.0866 159.568 26.7317C154.22 27.975 149.15 29.6271 144.525 31.6331C144.939 31.7822 145.271 32.054 145.686 32.2041Z" fill="url(#paint14_linear)"/>
<path d="M109.213 32.2041C116.003 29.7376 117.823 29.1768 122.984 28.1728V27.8868C123.048 27.5319 123.031 27.0866 123.095 26.7317C117.747 27.975 112.676 29.6271 108.052 31.6331C108.467 31.7822 108.799 32.054 109.213 32.2041Z" fill="url(#paint15_linear)"/>
<path d="M87.9845 7.60584C94.4862 5.24287 96.2301 4.70638 101.173 3.74497V3.47216C101.233 3.13141 101.218 2.70546 101.278 2.36572C96.1574 3.55634 91.3011 5.13841 86.8721 7.0582C87.2683 7.20221 87.5866 7.46285 87.9845 7.60584Z" fill="url(#paint16_linear)"/>
<path d="M67.4105 34.4554C73.9121 32.0935 75.656 31.557 80.5989 30.5956V30.3218C80.6594 29.982 80.6439 29.5551 80.7044 29.2153C75.5834 30.4059 70.7271 31.988 66.2981 33.9088C66.6943 34.0518 67.0126 34.3124 67.4105 34.4554Z" fill="url(#paint17_linear)"/>
<path d="M35.9907 34.8236C42.4923 32.4617 44.2362 31.9252 49.179 30.9638V30.6899C49.2396 30.3502 49.224 29.9243 49.2846 29.5835C44.1635 30.7741 39.3072 32.3562 34.8782 34.277C35.2744 34.42 35.5928 34.6806 35.9907 34.8236Z" fill="url(#paint18_linear)"/>
<path d="M43.7985 7.78224C43.2691 8.65136 43.0753 9.58945 43.2362 10.5073C43.2829 10.7699 43.3591 11.0356 43.5632 11.2709C43.7656 11.5062 44.1116 11.71 44.5459 11.777C45.0718 11.8581 45.6393 11.7273 46.0476 11.5163C46.4542 11.3054 46.731 11.0235 47.0009 10.7466C47.186 11.1289 48.1392 11.3389 48.814 11.3084C49.4887 11.278 50.0908 11.0143 50.4489 10.6766C50.807 10.3399 50.9472 9.93731 50.9835 9.54077C51.0648 8.67672 50.6773 7.79948 49.8884 7.06726C49.5025 7.41917 49.1358 7.82787 48.75 8.17978C49.352 8.49721 49.7897 9.07629 49.6842 9.54686C49.6202 9.83184 49.3347 10.1412 48.8503 10.1837C48.5493 10.2101 48.2431 10.1229 48.0372 9.99106C47.833 9.8582 47.7154 9.68783 47.6323 9.51643C47.3521 8.93127 47.4247 8.31162 47.4991 7.70516C47.1618 7.90089 46.8555 8.22644 46.7292 8.49519C46.6202 8.7254 46.6375 9.02457 46.6566 9.26391C46.6756 9.50325 46.6635 9.74969 46.5112 9.97179C46.3573 10.1929 46.0389 10.3886 45.6358 10.4302C45.1704 10.4789 44.6947 10.3065 44.449 10.0691C44.2051 9.83183 44.1532 9.54179 44.1722 9.26493C44.2068 8.80349 44.4248 8.34712 44.8054 7.94349C44.5563 7.84207 44.0459 7.88365 43.7985 7.78224Z" fill="url(#paint19_linear)"/>
<path d="M54.1858 1.45298V1.18017C54.2464 0.839415 54.2308 0.413471 54.2914 0.0737305C49.1704 1.26434 44.3141 2.84642 39.8851 4.76621C40.2813 4.91022 40.5996 5.17085 40.9975 5.31385C47.4991 2.95189 49.243 2.41439 54.1858 1.45298Z" fill="url(#paint20_linear)"/>
<path d="M128.534 8.27315C129.304 6.06535 127.922 3.47419 127.079 1.27551C126.491 1.68726 125.904 2.099 125.316 2.51075C126.608 4.42445 127.794 6.64443 128.077 8.69606C128.302 8.62202 128.484 8.42122 128.534 8.27315Z" fill="url(#paint21_linear)"/>
<path d="M77.9501 7.18294C78.72 4.97514 77.336 2.38398 76.4934 0.185303C75.9052 0.597048 75.3187 1.00879 74.7305 1.42054C76.0228 3.33424 77.2079 5.55422 77.4917 7.60584C77.7166 7.53181 77.8982 7.33101 77.9501 7.18294Z" fill="url(#paint22_linear)"/>
<path fill-rule="evenodd" clip-rule="evenodd" d="M109.719 19.2543C109.751 20.163 109.507 21.0474 108.787 21.8637C107.616 23.1892 105.401 24.0685 103.277 24.892C98.9584 26.5633 94.6401 28.2357 90.3219 29.907C88.7406 30.5195 86.7199 31.1483 85.0659 30.6057C84.1282 30.2984 83.5988 29.6697 83.4725 29.0439C83.3445 28.4192 83.5642 27.7884 83.8081 27.1749C84.6022 25.178 85.6455 23.1548 86.9707 21.238C80.5954 24.2632 74.2201 27.2874 67.8448 30.3116C66.4105 30.9921 64.8656 31.701 63.03 31.8197C59.729 32.0326 56.9003 30.1433 56.4834 28.2113C56.2273 27.0298 56.7256 25.3463 57.4522 23.8839C56.665 24.244 55.8277 24.5725 55.0024 24.892C50.6842 26.5633 46.3659 28.2357 42.0477 29.907C40.4646 30.5195 38.4456 31.1483 36.7917 30.6057C35.854 30.2984 35.3246 29.6697 35.1966 29.0439C35.0703 28.4192 35.29 27.7884 35.5339 27.1749C36.4284 24.9265 37.6377 22.6457 39.2121 20.52C38.7415 20.5788 38.2657 20.6194 37.7813 20.6275C36.1308 20.6569 34.354 20.2675 33.5357 19.4257C33.0167 18.8933 32.8748 18.1956 32.0253 17.8366C31.2901 17.5262 30.2313 17.5952 29.4597 17.8741C27.9735 18.4095 27.458 19.6904 28.3784 20.5595C29.7313 21.8364 33.0807 21.8536 34.6949 23.0219C34.6101 23.6801 33.8558 24.3089 33.3852 24.9092C32.271 26.3362 30.6949 25.8443 28.8178 25.2926C26.2071 24.5249 23.4805 24.961 21.1415 25.8879C19.0879 26.7012 17.5083 27.8564 15.6727 28.833C13.8371 29.8096 11.5448 30.6453 9.06729 30.5794C7.95139 30.5489 6.81819 30.3187 6.0362 29.8512C4.80439 29.1139 4.66598 27.9628 4.89954 26.9416C5.40819 24.7064 7.39258 22.598 10.3475 21.1538C10.7022 21.1549 10.8337 21.38 10.979 21.5696C9.27144 22.5899 7.85278 23.7825 7.12269 25.1466C6.84588 25.6658 6.64692 26.2155 6.79224 26.753C6.9393 27.2905 7.49119 27.8168 8.35277 28.0196C9.34583 28.2549 10.4756 28.0237 11.4219 27.7296C13.9409 26.9497 15.9876 25.7469 18.1778 24.68C20.3681 23.6132 22.8681 22.6396 25.7002 22.4662C24.8628 20.3243 24.4926 17.87 26.4389 15.9928C27.1206 15.3357 28.2348 14.7454 29.5462 14.7505C31.0046 14.7556 32.1465 15.4736 32.9509 16.1865C33.7554 16.8995 34.4942 17.7078 35.7986 18.0891C37.5598 18.6043 39.6602 18.158 41.4733 17.7108C44.1428 17.0526 48.0078 16.6551 50.6773 15.9969C48.8019 15.9036 45.9542 15.3722 44.1705 15.0223C43.4369 14.8793 42.712 14.714 41.9508 14.641C41.1878 14.5669 40.3712 14.5923 39.6965 14.8134C39.3903 14.9138 39.1238 15.0629 38.9318 15.2363C38.9854 15.2667 39.0391 15.2981 39.0875 15.3336C39.4387 15.5963 39.7882 15.859 40.1394 16.1216C39.4629 16.6074 38.2121 16.7747 37.2 16.5709C36.1879 16.367 35.3661 15.935 34.5737 15.5131C34.5772 15.5121 34.5807 15.5111 34.5841 15.5091C34.8021 14.1552 36.1464 12.7404 38.3937 12.4048C40.6221 12.0711 42.821 12.8672 44.8988 13.4443C48.1963 14.3611 51.8935 14.7789 55.537 14.646C55.6322 15.6947 55.1616 16.6307 53.8173 17.3234C50.6721 18.944 46.4023 18.9227 42.5286 19.8567C41.8297 20.0251 41.1203 20.1934 40.3989 20.3314C40.0563 20.7218 39.7328 21.1194 39.4283 21.5199C38.8401 22.3789 32.9925 31.2771 45.9922 26.5907C48.7067 25.5157 51.4212 24.4397 54.1374 23.3647C56.0803 22.5949 58.0941 21.7816 59.2428 20.5819C59.3622 20.4551 59.4712 20.3263 59.5698 20.1945C59.1252 14.6065 56.7827 8.36438 55.6374 3.65872C55.3502 2.47927 56.409 1.32415 56.7948 0.15686C57.3848 0.361719 58.1235 0.709573 58.5301 1.05641C59.966 2.28049 60.6286 4.4021 61.0698 5.91622C60.1044 5.70629 59.1598 5.42842 58.5941 4.8757C60.94 10.2598 61.1788 14.4949 61.4452 19.2543C61.4764 20.163 61.2324 21.0474 60.5127 21.8637C60.0404 22.3982 59.3951 22.8596 58.6581 23.2754C58.6737 23.5472 58.6408 23.892 58.4955 24.3565C58.4003 25.5766 58.4972 27.114 59.4176 27.8655C59.6079 27.9862 59.812 28.0998 60.0352 28.2012C60.2757 28.2793 60.4539 28.3452 60.5802 28.3989C61.6182 28.7022 62.895 28.691 64.0057 28.5419C66.7738 28.1687 68.6389 27.0217 70.8897 26.109C72.6111 25.4112 74.2599 24.6415 75.9363 23.9052C79.31 22.4236 82.2113 21.1569 85.5624 19.6661L85.2441 19.5109C83.886 19.1053 82.7787 18.5292 81.8203 17.8396C81.6092 17.6875 81.4068 17.5353 81.213 17.3771C80.0314 16.4086 79.7909 14.9462 81.1923 14.0842C82.6196 13.2059 85.0054 13.2779 87.0624 13.4149C92.9325 13.8073 98.794 14.2201 104.664 14.6126C104.081 15.3641 103.346 16.1439 102.763 16.8964C99.474 17.7564 93.7336 19.3852 90.443 20.2452C91.7526 21.0301 93.7716 22.0686 93.0813 23.2653C91.5122 22.5351 89.7319 21.7025 88.1385 20.9612C87.9863 21.1457 87.8444 21.3333 87.7025 21.5199C87.1143 22.3789 81.2667 31.2771 94.2664 26.5907C96.9809 25.5157 99.6971 24.4397 102.412 23.3647C104.457 22.5544 106.92 21.7238 107.593 20.233C108.152 18.9927 107.68 17.6469 107.418 16.4188C107.074 14.7911 106.578 13.1765 106.13 11.5569C105.405 8.92318 104.555 6.30059 103.912 3.65872C103.624 2.47927 104.683 1.32415 105.069 0.15686C105.659 0.361719 106.398 0.709573 106.804 1.05641C108.24 2.28049 108.903 4.4021 109.344 5.91622C108.379 5.70629 107.434 5.42842 106.87 4.8757C109.214 10.2598 109.453 14.4949 109.719 19.2543ZM83.6559 16.5537C85.1386 17.2818 86.6333 18.0475 88.116 18.7757C91.1454 17.9603 94.1765 17.1459 97.2058 16.3316C93.0225 15.9178 88.7337 15.6348 84.4984 15.4888C83.9085 15.4675 83.1403 15.5212 82.9985 15.8579C82.8843 16.1297 83.2891 16.3741 83.6559 16.5537Z" fill="url(#paint23_linear)"/>
<path style="mix-blend-mode:multiply" opacity="0.4" d="M150.478 23.5168C149.177 23.53 147.911 23.6984 146.7 23.9712L148.03 26.0674C148.387 25.961 148.748 25.8616 149.122 25.7733C150.769 25.388 152.722 25.3271 154.497 25.5877L154.499 25.5867C152.982 25.2145 151.643 24.5249 150.478 23.5168Z" fill="url(#paint24_linear)"/>
<path style="mix-blend-mode:multiply" opacity="0.4" d="M132.242 23.4214C131.449 22.3992 130.939 21.2654 130.641 20.4591C130.748 20.9347 130.781 21.4155 130.629 21.886C130.425 22.5199 129.842 23.1365 128.892 23.463C128.247 23.6841 127.51 23.7389 126.785 23.6689L126.624 24.6476L127.179 25.9497C127.851 25.8939 128.506 25.7631 129.089 25.5684C130.511 25.0928 131.539 24.2936 132.242 23.4214Z" fill="url(#paint25_linear)"/>
<path style="mix-blend-mode:multiply" opacity="0.4" d="M88.116 18.7757C89.2129 19.4856 89.9897 19.9755 90.443 20.2452C91.1575 20.0586 91.9897 19.8345 92.8824 19.5921L90.744 18.0688C89.8686 18.3041 88.9914 18.5404 88.116 18.7757Z" fill="url(#paint26_linear)"/>
<path style="mix-blend-mode:multiply" opacity="0.4" d="M85.5624 19.6661C84.6317 20.0799 83.7389 20.4754 82.8583 20.8638L84.3427 22.4855C85.2199 22.0697 86.0953 21.6539 86.9707 21.2381L87.5053 20.8446L85.5624 19.6661Z" fill="url(#paint27_linear)"/>
<path style="mix-blend-mode:multiply" opacity="0.4" d="M58.4955 24.3566C58.6408 23.8921 58.6737 23.5473 58.6581 23.2755L57.4522 23.884C56.7619 25.2744 56.2844 26.8605 56.4592 28.0288L58.8795 27.1861C58.4609 26.3788 58.4228 25.2774 58.4955 24.3566Z" fill="url(#paint28_linear)"/>
<path style="mix-blend-mode:multiply" opacity="0.4" d="M25.7002 22.4662C23.6051 22.594 21.6916 23.1619 19.9512 23.8799L21.2678 25.8403C23.5774 24.9478 26.2538 24.5381 28.8178 25.2926C29.0756 25.3677 29.3247 25.4417 29.5704 25.5107C27.5047 24.9225 26.214 23.9073 25.7002 22.4662Z" fill="url(#paint29_linear)"/>
</g>
<defs>
<filter id="filter0_d" x="0.805382" y="0.0737305" width="185.313" height="42.7499" filterUnits="userSpaceOnUse" color-interpolation-filters="sRGB">
<feFlood flood-opacity="0" result="BackgroundImageFix"/>
<feColorMatrix in="SourceAlpha" type="matrix" values="0 0 0 0 0 0 0 0 0 0 0 0 0 0 0 0 0 0 127 0" result="hardAlpha"/>
<feOffset dy="4"/>
<feGaussianBlur stdDeviation="2"/>
<feComposite in2="hardAlpha" operator="out"/>
<feColorMatrix type="matrix" values="0 0 0 0 0 0 0 0 0 0 0 0 0 0 0 0 0 0 0.25 0"/>
<feBlend mode="normal" in2="BackgroundImageFix" result="effect1_dropShadow"/>
<feBlend mode="normal" in="SourceGraphic" in2="effect1_dropShadow" result="shape"/>
</filter>
<linearGradient id="paint0_linear" x1="10.9447" y1="18.613" x2="178.184" y2="-13.0011" gradientUnits="userSpaceOnUse">
<stop stop-color="#927A3A"/>
<stop offset="0.32" stop-color="#FEC264"/>
<stop offset="0.548" stop-color="#FED390"/>
<stop offset="1" stop-color="#FEC264"/>
</linearGradient>
<linearGradient id="paint1_linear" x1="12.6123" y1="32.7628" x2="181.056" y2="0.920888" gradientUnits="userSpaceOnUse">
<stop stop-color="#927A3A"/>
<stop offset="0.32" stop-color="#FEC264"/>
<stop offset="0.548" stop-color="#FED390"/>
<stop offset="1" stop-color="#FEC264"/>
</linearGradient>
<linearGradient id="paint2_linear" x1="10.4668" y1="21.4127" x2="178.91" y2="-10.4292" gradientUnits="userSpaceOnUse">
<stop stop-color="#CA9E51"/>
<stop offset="0.32" stop-color="#FEC264"/>
<stop offset="0.548" stop-color="#FED390"/>
<stop offset="1" stop-color="#FEC264"/>
</linearGradient>
<linearGradient id="paint3_linear" x1="11.6636" y1="27.7444" x2="180.108" y2="-4.09758" gradientUnits="userSpaceOnUse">
<stop stop-color="#CA9E51"/>
<stop offset="0.32" stop-color="#FEC264"/>
<stop offset="0.548" stop-color="#FED390"/>
<stop offset="1" stop-color="#FEC264"/>
</linearGradient>
<linearGradient id="paint4_linear" x1="11.5723" y1="27.2608" x2="180.016" y2="-4.58116" gradientUnits="userSpaceOnUse">
<stop stop-color="#CA9E51"/>
<stop offset="0.32" stop-color="#FEC264"/>
<stop offset="0.548" stop-color="#FED390"/>
<stop offset="1" stop-color="#FEC264"/>
</linearGradient>
<linearGradient id="paint5_linear" x1="23.021" y1="7.92191" x2="172.682" y2="-20.3694" gradientUnits="userSpaceOnUse">
<stop stop-color="#CA9E51"/>
<stop offset="0.32" stop-color="#FEC264"/>
<stop offset="0.548" stop-color="#FED390"/>
<stop offset="1" stop-color="#FEC264"/>
</linearGradient>
<linearGradient id="paint6_linear" x1="19.4692" y1="6.33014" x2="169.133" y2="-21.9618" gradientUnits="userSpaceOnUse">
<stop stop-color="#CA9E51"/>
<stop offset="0.32" stop-color="#FEC264"/>
<stop offset="0.548" stop-color="#FED390"/>
<stop offset="1" stop-color="#FEC264"/>
</linearGradient>
<linearGradient id="paint7_linear" x1="10.5743" y1="3.15692" x2="169.223" y2="-26.8334" gradientUnits="userSpaceOnUse">
<stop stop-color="#CA9E51"/>
<stop offset="0.32" stop-color="#FEC264"/>
<stop offset="0.548" stop-color="#FED390"/>
<stop offset="1" stop-color="#FEC264"/>
</linearGradient>
<linearGradient id="paint8_linear" x1="7.27093" y1="13.1044" x2="171.992" y2="-18.0336" gradientUnits="userSpaceOnUse">
<stop stop-color="#CA9E51"/>
<stop offset="0.32" stop-color="#FEC264"/>
<stop offset="0.548" stop-color="#FED390"/>
<stop offset="1" stop-color="#FEC264"/>
</linearGradient>
<linearGradient id="paint9_linear" x1="12.1037" y1="15.9106" x2="176.825" y2="-15.2277" gradientUnits="userSpaceOnUse">
<stop stop-color="#CA9E51"/>
<stop offset="0.32" stop-color="#FEC264"/>
<stop offset="0.548" stop-color="#FED390"/>
<stop offset="1" stop-color="#FEC264"/>
</linearGradient>
<linearGradient id="paint10_linear" x1="16.3297" y1="20.3912" x2="178.261" y2="-10.2198" gradientUnits="userSpaceOnUse">
<stop stop-color="#CA9E51"/>
<stop offset="0.32" stop-color="#FEC264"/>
<stop offset="0.548" stop-color="#FED390"/>
<stop offset="1" stop-color="#FEC264"/>
</linearGradient>
<linearGradient id="paint11_linear" x1="10.4969" y1="5.57168" x2="172.427" y2="-25.039" gradientUnits="userSpaceOnUse">
<stop stop-color="#CA9E51"/>
<stop offset="0.32" stop-color="#FEC264"/>
<stop offset="0.548" stop-color="#FED390"/>
<stop offset="1" stop-color="#FEC264"/>
</linearGradient>
<linearGradient id="paint12_linear" x1="8.5379" y1="6.43222" x2="170.469" y2="-24.1786" gradientUnits="userSpaceOnUse">
<stop stop-color="#CA9E51"/>
<stop offset="0.32" stop-color="#FEC264"/>
<stop offset="0.548" stop-color="#FED390"/>
<stop offset="1" stop-color="#FEC264"/>
</linearGradient>
<linearGradient id="paint13_linear" x1="13.1657" y1="35.6887" x2="181.609" y2="3.84687" gradientUnits="userSpaceOnUse">
<stop stop-color="#CA9E51"/>
<stop offset="0.32" stop-color="#FEC264"/>
<stop offset="0.548" stop-color="#FED390"/>
<stop offset="1" stop-color="#FEC264"/>
</linearGradient>
<linearGradient id="paint14_linear" x1="-13.6218" y1="37.5737" x2="162.263" y2="4.32529" gradientUnits="userSpaceOnUse">
<stop stop-color="#CA9E51"/>
<stop offset="0.32" stop-color="#FEC264"/>
<stop offset="0.548" stop-color="#FED390"/>
<stop offset="1" stop-color="#FEC264"/>
</linearGradient>
<linearGradient id="paint15_linear" x1="-50.0946" y1="37.5737" x2="125.791" y2="4.3251" gradientUnits="userSpaceOnUse">
<stop stop-color="#CA9E51"/>
<stop offset="0.32" stop-color="#FEC264"/>
<stop offset="0.548" stop-color="#FED390"/>
<stop offset="1" stop-color="#FEC264"/>
</linearGradient>
<linearGradient id="paint16_linear" x1="9.20985" y1="7.93767" x2="177.654" y2="-23.9043" gradientUnits="userSpaceOnUse">
<stop stop-color="#CA9E51"/>
<stop offset="0.32" stop-color="#FEC264"/>
<stop offset="0.548" stop-color="#FED390"/>
<stop offset="1" stop-color="#FEC264"/>
</linearGradient>
<linearGradient id="paint17_linear" x1="-11.3643" y1="34.7878" x2="157.08" y2="2.94575" gradientUnits="userSpaceOnUse">
<stop stop-color="#CA9E51"/>
<stop offset="0.32" stop-color="#FEC264"/>
<stop offset="0.548" stop-color="#FED390"/>
<stop offset="1" stop-color="#FEC264"/>
</linearGradient>
<linearGradient id="paint18_linear" x1="-42.7839" y1="35.156" x2="125.66" y2="3.31405" gradientUnits="userSpaceOnUse">
<stop stop-color="#CA9E51"/>
<stop offset="0.32" stop-color="#FEC264"/>
<stop offset="0.548" stop-color="#FED390"/>
<stop offset="1" stop-color="#FEC264"/>
</linearGradient>
<linearGradient id="paint19_linear" x1="9.06644" y1="9.28298" x2="173.788" y2="-21.8554" gradientUnits="userSpaceOnUse">
<stop stop-color="#CA9E51"/>
<stop offset="0.32" stop-color="#FEC264"/>
<stop offset="0.548" stop-color="#FED390"/>
<stop offset="1" stop-color="#FEC264"/>
</linearGradient>
<linearGradient id="paint20_linear" x1="10.9974" y1="2.47747" x2="179.441" y2="-29.3644" gradientUnits="userSpaceOnUse">
<stop stop-color="#CA9E51"/>
<stop offset="0.32" stop-color="#FEC264"/>
<stop offset="0.548" stop-color="#FED390"/>
<stop offset="1" stop-color="#FEC264"/>
</linearGradient>
<linearGradient id="paint21_linear" x1="24.0556" y1="7.83494" x2="169.502" y2="-19.6595" gradientUnits="userSpaceOnUse">
<stop stop-color="#CA9E51"/>
<stop offset="0.32" stop-color="#FEC264"/>
<stop offset="0.548" stop-color="#FED390"/>
<stop offset="1" stop-color="#FEC264"/>
</linearGradient>
<linearGradient id="paint22_linear" x1="-26.53" y1="6.74493" x2="118.916" y2="-20.7495" gradientUnits="userSpaceOnUse">
<stop stop-color="#CA9E51"/>
<stop offset="0.32" stop-color="#FEC264"/>
<stop offset="0.548" stop-color="#FED390"/>
<stop offset="1" stop-color="#FEC264"/>
</linearGradient>
<linearGradient id="paint23_linear" x1="7.11871" y1="2.99263" x2="175.294" y2="-28.7985" gradientUnits="userSpaceOnUse">
<stop stop-color="#CA9E51"/>
<stop offset="0.32" stop-color="#FEC264"/>
<stop offset="0.548" stop-color="#FED390"/>
<stop offset="1" stop-color="#FEC264"/>
</linearGradient>
<linearGradient id="paint24_linear" x1="156.563" y1="25.2247" x2="152.599" y2="30.0293" gradientUnits="userSpaceOnUse">
<stop stop-color="#927A3A"/>
<stop offset="1" stop-color="white"/>
</linearGradient>
<linearGradient id="paint25_linear" x1="124.066" y1="23.6538" x2="127.743" y2="17.5323" gradientUnits="userSpaceOnUse">
<stop stop-color="white"/>
<stop offset="1" stop-color="#CA9E51"/>
</linearGradient>
<linearGradient id="paint26_linear" x1="92.7724" y1="20.1142" x2="91.1034" y2="21.9298" gradientUnits="userSpaceOnUse">
<stop stop-color="white"/>
<stop offset="1" stop-color="#CA9E51"/>
</linearGradient>
<linearGradient id="paint27_linear" x1="82.1033" y1="20.6995" x2="84.1801" y2="17.8507" gradientUnits="userSpaceOnUse">
<stop stop-color="white"/>
<stop offset="1" stop-color="#CA9E51"/>
</linearGradient>
<linearGradient id="paint28_linear" x1="55.7528" y1="27.702" x2="55.7763" y2="23.6458" gradientUnits="userSpaceOnUse">
<stop stop-color="white"/>
<stop offset="1" stop-color="#CA9E51"/>
</linearGradient>
<linearGradient id="paint29_linear" x1="19.7693" y1="23.0813" x2="24.3294" y2="19.878" gradientUnits="userSpaceOnUse">
<stop stop-color="white"/>
<stop offset="1" stop-color="#CA9E51"/>
</linearGradient>
</defs>
</svg>
