<svg width="100" height="100" viewBox="0 0 100 100" fill="none" xmlns="http://www.w3.org/2000/svg">
    <path fill-rule="evenodd" clip-rule="evenodd" d="M6.64533 8.60532C5.90987 10.0029 5.56103 11.3026 5.59882 12.4985C5.71219 15.4065 7.43603 18.8486 10.7674 22.8249C10.8256 22.8902 10.9157 22.9822 11.0436 23.1038C11.1715 23.2225 11.2558 23.3115 11.3023 23.365C11.5349 23.6409 11.4971 23.9199 11.1802 24.1958C10.9913 24.359 10.6599 24.2581 10.1889 23.8902C9.51452 23.3472 8.98254 23.0029 8.5901 22.8635L8.20929 23.2225C8.04068 24.1513 8.04359 25.2819 8.22092 26.6172C8.35754 27.6469 8.33429 28.2403 8.15696 28.3976C7.89243 28.6261 7.49998 28.4273 6.9651 27.7893C6.3808 27.0979 5.71219 25.8961 4.95929 24.1988C3.89824 21.7863 3.34301 19.6113 3.29359 17.6884C3.23836 15.4302 3.45638 13.4688 3.94766 11.7982C4.39824 10.2463 5.01161 9.13647 5.78778 8.45695C6.22964 8.07416 6.52324 7.96436 6.66568 8.13944C6.7558 8.24329 6.74708 8.3976 6.64533 8.60532ZM20.6773 16.7092C20.4884 16.8724 20.0814 16.8071 19.4622 16.5282C18.8401 16.2433 18.4535 16.1691 18.2936 16.3026C18.1453 16.4362 18.0843 16.7982 18.1104 17.3857C18.1424 18.1009 18.311 18.8101 18.6134 19.5104C19.2238 20.721 19.6337 21.4599 19.8372 21.727C19.8924 21.9406 19.7994 22.1483 19.5698 22.3472C19.3692 22.5282 19.125 22.4688 18.8314 22.1869C18.3895 21.721 17.9448 21.2552 17.4971 20.7923C16.8604 20.178 16.2384 19.7834 15.6395 19.6024C15.0407 19.4184 14.5988 19.451 14.3168 19.6973C14.1686 19.8249 14.1105 20.0089 14.1424 20.2403C14.1453 20.3115 14.2151 20.5786 14.3488 21.0386C14.5552 21.7656 14.4971 22.273 14.1744 22.5578C13.9942 22.7092 13.8081 22.6706 13.6075 22.4362C11.2907 19.6736 9.76743 17.7656 9.04068 16.7299C8.49999 15.9584 8.05522 15.092 7.69475 14.1305C7.33719 13.175 7.12789 12.3412 7.07557 11.6528C6.99999 10.6973 7.02033 9.26704 7.13661 7.36496C7.15696 7.08603 7.26161 6.86051 7.45057 6.69433C7.76452 6.42727 8.10173 6.32935 8.45638 6.4332C8.77905 6.57861 9.09591 6.71511 9.40987 6.85457C9.96801 6.99404 10.5261 7.1424 11.0814 7.28484C12.0407 7.5608 12.936 7.93173 13.7703 8.40354C14.6017 8.87535 15.2587 9.40057 15.7442 9.97921C15.7791 10.0207 16.1075 10.4688 16.7151 11.3175C17.3285 12.1662 17.9506 12.9673 18.5785 13.7151C18.8227 14.0059 19.1744 14.3472 19.6366 14.7329C20.0959 15.1187 20.3866 15.3857 20.5145 15.5371C20.936 16.0385 20.9913 16.4332 20.6773 16.7092ZM8.45057 8.44211C8.30522 8.57268 8.45057 9.03559 8.88952 9.84271C9.43894 10.8664 10.2878 12.0682 11.4389 13.4391C12.4709 14.6736 13.3924 15.6498 14.2006 16.3739C14.8808 16.9822 15.2703 17.2463 15.375 17.1513C15.4389 17.0979 15.4186 16.9881 15.3139 16.8219C15.1628 16.6024 15.0145 16.3739 14.8634 16.1543C13.3779 13.7774 12.0668 11.9021 10.9215 10.543C9.5465 8.90502 8.72673 8.20472 8.45057 8.44211ZM27.5872 10.4985C27.0639 10.9584 25.9041 11.0207 24.1163 10.6884C22.5814 10.3946 21.7238 10.3234 21.5581 10.4688C21.468 10.5549 21.4564 10.7151 21.5232 10.9495C21.6424 11.3115 21.7616 11.6676 21.8837 12.0326C22.0581 12.5786 22.0872 12.905 21.9709 13.0118C21.782 13.1751 21.6046 13.1572 21.4448 12.9673C21.3808 12.8932 21.1831 12.5964 20.843 12.0712C20.5058 11.5489 20.1657 11.092 19.8227 10.6795C18.3168 8.87534 16.2064 7.5252 13.5 6.62312C12.6424 6.32935 11.7296 6.1068 10.7732 5.93766C10.0959 5.8249 9.72673 5.72995 9.66278 5.65873C9.51161 5.47475 9.51743 5.31154 9.68603 5.16318C9.83429 5.03261 10.5988 4.91392 11.9913 4.79225C13.7994 4.62312 15.6075 4.67356 17.4215 4.9525C19.6599 5.27891 21.7209 5.98217 23.5959 7.07713C24.5261 7.62015 25.4477 8.23736 26.3517 8.92876C27.0116 9.43024 27.3866 9.74181 27.4855 9.85754C27.7209 10.1365 27.7558 10.3531 27.5872 10.4985Z" fill="white"/>
    <path fill-rule="evenodd" clip-rule="evenodd" d="M39.3023 7.59054C39.1308 7.76858 38.7732 7.91992 38.2267 8.05345C37.6831 8.18402 37.343 8.32051 37.2064 8.45998C37.032 8.63802 36.9419 8.89619 36.9331 9.2404C36.9215 9.58461 36.9884 9.8309 37.1279 9.97037C37.2965 10.1454 38.0349 10.4837 39.343 10.9882C40.6453 11.4837 41.3779 11.822 41.5349 11.9793C41.7762 12.2256 41.9244 12.5668 41.9971 13.0119C42.0639 13.4511 42.0058 13.7686 41.8139 13.9615C41.7151 14.0653 41.5872 14.098 41.4418 14.0534C41.2965 14.0119 41.1744 14.0327 41.0901 14.1217C40.968 14.2434 40.8721 14.552 40.8052 15.0445C40.7006 15.6083 40.5639 16.0475 40.3924 16.368C39.8198 16.6707 39.3256 16.8487 38.9041 16.9081C38.4796 16.9674 38.1715 16.908 37.9796 16.7152C37.8285 16.5549 37.8866 16.1959 38.1657 15.6261C38.4535 14.9466 38.5349 14.3502 38.3982 13.8576C38.2209 13.9615 38.1017 14.0505 38.0349 14.1217C37.1366 14.8576 36.436 14.9733 35.936 14.4629C35.7994 14.3235 35.6308 14.1098 35.4331 13.8161C35.2296 13.5253 35.0785 13.3264 34.9738 13.2196C34.5261 12.7626 33.8924 12.6232 33.061 12.7983C32.1279 13.0089 31.186 13.5994 30.2355 14.5668C28.0087 16.8428 26.5581 19.5935 25.8837 22.822C25.4535 24.8517 25.3546 25.9882 25.6017 26.2315C25.7209 26.3561 26.125 26.454 26.8139 26.5223C28.2006 26.6647 29.0523 26.7597 29.3837 26.8101C31.0785 27.0623 32.6802 27.5163 34.1977 28.1929C35.5116 28.7893 36.4855 29.4184 37.125 30.0683C38.75 31.7211 39.5988 33.7211 39.6773 36.0594C39.7587 38.3917 39.0785 40.2938 37.6482 41.7567C37.0581 42.3531 36.2006 42.7982 35.0785 43.0772C33.9564 43.362 32.8401 43.3828 31.7384 43.1306C30.186 42.7775 28.4506 41.6232 26.532 39.6617C25.4128 38.5163 24.5116 36.7063 23.8372 34.2196C23.5262 33.0564 23.2674 31.7864 23.061 30.4155C22.9244 29.3858 22.8198 28.8398 22.75 28.7686C22.561 28.5787 22.0668 28.4629 21.2732 28.4273C20.3546 28.3769 19.3459 28.454 18.2413 28.6617C15.718 29.1632 13.7849 30.095 12.4389 31.4689C10.4506 33.4956 9.47964 35.1603 9.50871 36.4659C9.52615 36.8754 9.69185 37.638 9.99999 38.7686C10.2267 39.5193 10.2006 40.0445 9.92732 40.3264C9.77325 40.4867 9.4186 40.641 8.87499 40.7893C8.33429 40.9407 7.96511 41.1128 7.77325 41.3057C7.68894 41.3917 7.65115 41.4629 7.6715 41.5163C7.68604 41.5342 7.7122 41.546 7.74999 41.5431C8.45639 41.7656 9.16569 41.8457 9.87499 41.7567C10.4622 41.6825 10.8575 41.5431 11.061 41.3294C11.186 41.2077 11.2762 40.8101 11.3343 40.1336C11.3924 39.4511 11.5203 39.0089 11.7122 38.819C12.1424 38.3769 12.5698 38.3709 12.9825 38.7893C13.3808 39.1988 13.6395 40.2196 13.7558 41.8635C13.811 42.7241 13.6977 43.2997 13.4244 43.5787C12.2791 44.7448 11.2151 45.3442 10.2122 45.3769C9.5029 45.3947 8.73255 45.2374 7.90115 44.8991C7.07267 44.5698 6.44767 44.1781 6.01743 43.7389C5.49708 43.2107 5.01743 42.1098 4.59011 40.4333C3.5872 40.6825 2.84592 40.7864 2.36046 40.7478C1.77034 40.7152 1.27034 40.4867 0.85755 40.0623C0.130806 39.3264 -0.0494269 38.7686 0.313945 38.4006C0.505806 38.2018 0.886619 38.1247 1.46511 38.1721C2.0465 38.2137 2.64243 38.2552 3.27034 38.2908C4.01162 38.3086 4.81976 37.8695 5.70348 36.9704C5.89243 36.7804 6.45639 35.8991 7.40115 34.3324C8.34301 32.7775 9.30522 31.4896 10.2878 30.4867C12.3924 28.3413 15.1395 27.0505 18.5262 26.6291C19.3721 26.5431 20.4448 26.4362 21.7384 26.3086C22.5145 26.2582 22.9389 26.1988 23.0058 26.1247C23.1453 25.9882 23.2936 25.3947 23.4477 24.3531C23.6918 22.7686 23.9244 21.5074 24.1482 20.5757C24.6308 18.5282 25.3837 16.5075 26.4041 14.5164C27.282 12.8042 28.1308 11.5342 28.9389 10.7092C29.8721 9.75671 31.1424 8.82199 32.75 7.90805C34.3546 6.98817 35.2093 6.47778 35.3139 6.37095C35.5232 6.16027 35.6046 5.55493 35.561 4.55789C35.5174 3.56383 35.6686 2.89024 36.0116 2.53712C36.4971 2.04158 37.4448 2.52229 38.8604 3.97037C40.1889 5.32348 40.3401 6.53119 39.3023 7.59054ZM25.6017 28.5579C25.4273 28.6291 25.2791 28.73 25.1599 28.8517C25.0407 28.9733 24.9535 29.1158 24.9012 29.276C26.0232 32.1098 27.5262 34.4926 29.407 36.4155C31.875 38.9347 34.0291 39.2612 35.8605 37.3917C36.4273 36.8101 36.7296 36.1069 36.75 35.2879C36.7762 34.4689 36.4855 33.7537 35.8866 33.1336C32.532 29.7122 29.1046 28.1899 25.6017 28.5579Z" fill="white"/>
    <path d="M9.80814 88.6143C10.3663 86.2137 11.8837 78.6439 13.4041 76.4095C14.9215 74.1691 15.9273 71.8309 19.9273 70.0237C24.9826 67.7329 27.2122 65.724 29.5407 62.1039C32.8546 56.9436 32.8314 50.2226 32.7442 47.641C32.686 45.8783 31.8895 45.7745 31.5639 47.4688C30.9622 50.6291 29.8169 54.3947 28.3605 56.4214C27.0029 58.3086 24.4796 59.1751 21.4448 59.1751C18.4099 59.1751 16.7558 59.6558 14.8895 57.5905C13.2878 55.822 13.3139 53.8724 13.9884 52.4956C14.6628 51.1187 13.5087 50.7596 11.8314 51.4303C9.91569 52.1959 7.82558 54.0683 7.78488 56.7656C7.74709 59.2315 8.90407 60.3561 11.5436 62.2018C13.4041 63.5015 16.75 63.6113 18.7674 63.7181C20.6279 63.819 20.9099 64.8398 18.7151 65.181C16.5233 65.5252 12.4448 65.997 9.80814 68.816C5.10755 73.8427 5.98546 83.819 7.34883 88.0653C8.25 90.8843 9.4186 90.2878 9.80814 88.6143Z" fill="white"/>
    <path d="M84.7732 12.092C82.4244 12.6617 75.0058 14.2136 72.8139 15.7596C70.6221 17.3116 68.3314 18.3383 66.5581 22.4214C64.3169 27.5816 62.3517 29.8605 58.8023 32.2344C53.7471 35.6172 47.1628 35.5935 44.6337 35.5044C42.9099 35.4451 42.8023 34.6291 44.4651 34.3027C47.5581 33.6855 51.25 32.5163 53.2355 31.0297C55.0843 29.6439 55.936 27.0682 55.936 23.9703C55.936 20.8724 56.4041 19.181 54.3837 17.2789C52.6453 15.6439 50.7384 15.6706 49.3866 16.359C48.0378 17.0475 47.6889 15.8694 48.3459 14.1602C49.0959 12.2018 50.9302 10.0712 53.5727 10.0267C55.9855 9.98813 57.0901 11.1662 58.8982 13.8605C60.1715 15.7596 60.2791 19.1751 60.3837 21.2374C60.4826 23.1365 61.4826 23.4214 61.8198 21.184C62.157 18.9466 62.6163 14.7834 65.3808 12.092C70.3023 7.29376 80.0727 8.1899 84.2355 9.5816C86.9971 10.4985 86.4099 11.6944 84.7732 12.092Z" fill="white"/>
    <path d="M41.0523 44.0386C43.0262 42.0237 43.7965 39.2641 43.4506 36.6142C46.0959 40.0356 46.4389 44.3798 44.0552 46.819C41.7762 49.1424 37.7732 48.9406 34.4971 46.5608C36.8692 46.6854 39.2616 45.8664 41.0523 44.0386Z" fill="white"/>
    <path d="M4.87499 97.6172C4.87499 89.9051 4.87499 82.1959 4.87499 74.4837C4.87499 69.6855 4.87499 64.8873 4.87499 60.092C4.87499 56.2849 4.36918 51.9525 8.56976 50.0089C9.61046 49.5282 8.97092 47.2522 7.96801 47.7152C4.05522 49.5252 3.13953 53.3086 3.13953 57.276C3.13953 61.9822 3.13953 66.6855 3.13953 71.3917C3.13953 80.0742 3.13953 88.7567 3.13953 97.4392C3.13953 98.7834 4.87499 99.1692 4.87499 97.6172Z" fill="white"/>
    <path d="M94.2297 4.092C85.9128 4.092 77.5959 4.092 69.2791 4.092C64.5727 4.092 59.8634 4.092 55.157 4.092C51.282 4.092 47.625 4.92583 45.8372 8.9555C45.3866 9.97331 46.8227 11.6083 47.4186 10.2611C49.2442 6.14838 53.2616 6.42138 56.8837 6.42138C61.6366 6.42138 66.3866 6.42138 71.1366 6.42138C78.8837 6.42138 86.6308 6.42138 94.375 6.42138C95.6047 6.42138 95.3052 4.092 94.2297 4.092Z" fill="white"/>
</svg>
