<svg width="211" height="135" viewBox="0 0 211 135" fill="none" xmlns="http://www.w3.org/2000/svg">
<path fill-rule="evenodd" clip-rule="evenodd" d="M173.792 89.9862C170.345 87.9763 167.281 85.1601 164.68 82.2049C161.944 79.0876 159.911 75.6212 157.929 72.0171C156.027 68.5616 153.685 65.0962 149.634 63.8592C149.452 63.8057 149.342 63.675 149.291 63.5276C145.907 62.9357 142.597 61.9949 139.239 61.3007C136.5 60.7323 133.782 60.4481 131.05 60.4627C129.955 60.5888 128.854 60.6739 127.749 60.6412C127.434 60.6726 127.116 60.714 126.794 60.7568C127.511 63.1229 125.532 65.3699 123.989 67.0147C123.074 67.9936 122.045 68.439 120.694 68.3896C119.478 68.3453 118.234 68.1284 117.069 67.8129C115.036 67.2704 113.092 66.3652 111.443 65.0921C106.259 67.0868 101.142 69.3196 95.8606 71.0039C96.4973 70.9966 97.1384 70.9881 97.7792 71.013C100.733 71.1217 103.661 71.6132 106.405 72.6556C108.603 73.4893 110.632 74.6609 112.688 75.7769C112.817 75.7267 112.962 75.7381 113.084 75.8562C113.193 75.9636 113.305 76.0653 113.412 76.1683C113.423 76.1702 113.43 76.1777 113.435 76.1808C115.221 76.5219 117.032 76.7273 118.855 76.7632C119.823 76.7818 120.79 76.7583 121.753 76.6881C122.379 76.6456 123.01 76.564 123.639 76.5302C123.651 76.4508 123.674 76.3732 123.716 76.2949C123.85 76.0574 124.135 75.8969 124.411 75.9004C124.443 75.8915 124.466 75.8706 124.494 75.8629C124.615 75.824 124.743 75.8072 124.869 75.8005C124.989 75.7906 125.107 75.8097 125.219 75.8213C125.352 75.841 125.486 75.8796 125.598 75.9479C125.777 76.0595 125.913 76.2115 125.974 76.413C126.02 76.5572 126.022 76.7419 125.969 76.8851C125.908 77.0354 125.837 77.1692 125.713 77.285C125.591 77.3951 125.466 77.4731 125.309 77.5266C125.187 77.5654 125.051 77.5703 124.926 77.5626C124.795 77.5517 124.672 77.5338 124.551 77.487C124.43 77.4401 124.325 77.3649 124.214 77.301C124.205 77.3035 124.2 77.3048 124.19 77.3029C124.082 77.2857 123.996 77.2242 123.924 77.1444C123.913 77.1381 123.898 77.1376 123.885 77.1269C123.884 77.1225 123.878 77.1194 123.877 77.115C123.18 77.2769 122.454 77.333 121.751 77.3827C120.755 77.4574 119.755 77.4855 118.752 77.4625C117.675 77.4411 116.599 77.3528 115.525 77.2211C118.216 78.4779 121.007 79.5163 123.865 80.3698C126.585 81.186 129.365 81.7284 132.147 82.2753C132.078 81.9616 132.179 81.6196 132.401 81.3579C132.532 81.1974 132.704 81.0921 132.893 81.0297C133.148 80.8347 133.467 80.7119 133.793 80.7158C134.196 80.7169 134.586 80.8643 134.93 81.0579C135.141 81.1794 135.348 81.34 135.462 81.5552C135.598 81.8119 135.648 82.1117 135.551 82.3957C135.394 82.8343 135.018 83.2107 134.533 83.3037C134.114 83.3878 133.697 83.3193 133.288 83.2104C133.016 83.1345 132.779 83.0061 132.566 82.8423C129.262 82.6749 125.963 81.9641 122.82 81.0574C120.458 80.3786 118.153 79.4986 115.92 78.4891C116.443 78.9556 116.968 79.4265 117.509 79.8834C118.274 80.5249 119.054 81.1525 119.833 81.7756C120.301 82.1484 120.786 82.5306 121.218 82.9513C121.265 82.9241 121.309 82.888 121.365 82.8771C121.425 82.8649 121.482 82.8584 121.544 82.8506C121.684 82.8589 121.828 82.866 121.962 82.9046C122.097 82.9476 122.228 82.9963 122.352 83.052C122.554 83.1427 122.732 83.2688 122.907 83.4005C123.082 83.5367 123.222 83.7019 123.358 83.8729C123.491 84.0496 123.585 84.2421 123.671 84.446C123.738 84.6128 123.668 84.8223 123.56 84.962C123.452 85.1017 123.264 85.2208 123.074 85.2076C122.651 85.1694 122.255 85.0712 121.873 84.8834C121.628 84.762 121.404 84.5964 121.195 84.4124C121.185 84.4106 121.17 84.41 121.154 84.405C121.039 84.3613 120.959 84.2885 120.887 84.1898C120.79 84.0508 120.777 83.8832 120.799 83.7155C120.228 83.3809 119.707 82.9566 119.207 82.5405C118.438 81.9003 117.689 81.2449 116.947 80.5781C115.753 79.5057 114.591 78.3954 113.435 77.2838C110.789 75.9052 108.263 74.2551 105.415 73.2799C100.909 71.7331 96.0151 71.783 91.2389 72.2706C87.8753 73.0658 84.4592 73.5858 80.9862 73.7271C76.1685 73.9268 71.3621 73.6051 66.5683 73.3464C61.7092 73.0823 56.826 72.8725 51.9613 73.2897C47.1057 73.7044 42.2935 74.6774 37.6302 76.0936C28.1622 78.9656 19.4821 83.6847 11.3745 89.237C11.0198 89.479 10.5711 88.9297 10.9093 88.6638C11.8156 87.9534 12.7277 87.2462 13.6646 86.5748C15.7124 85.1167 17.8272 83.7397 20.0022 82.4551C22.3976 80.5193 24.7975 78.5822 27.1834 76.63C27.7827 76.1388 28.3915 75.6639 28.9978 75.1803C28.9497 74.6756 29.0914 74.0416 29.1271 73.6608C29.2348 72.5372 29.354 71.42 29.5489 70.31C29.746 69.1899 30.0051 68.0809 30.3747 66.998C30.553 66.4774 30.7566 65.9592 30.9834 65.4535C31.1719 65.0394 31.4131 64.6201 31.9103 64.5187C32.873 64.325 33.289 65.4064 33.3828 66.1265C33.5186 67.2246 33.2818 68.3083 32.9148 69.3477C32.4159 70.7758 31.7789 72.1666 31.0724 73.5198C32.3608 72.5074 33.6587 71.5114 34.9694 70.5261C35.6652 68.6435 36.2297 66.7311 36.6122 64.7651C36.9563 62.9953 37.1217 61.1662 38.3148 59.691C38.5483 59.4021 39.0009 59.5795 39.0985 59.8754C40.03 62.8137 39.069 65.7833 37.7056 68.509C39.1874 67.433 40.6787 66.3733 42.1911 65.3362C42.1863 65.2139 42.2068 65.0941 42.2955 65.0074C42.5389 64.7538 42.7706 64.494 43.0024 64.2341C42.9764 64.1939 42.9437 64.165 42.9405 64.1184C42.6888 61.9403 43.4823 59.4075 44.3128 57.3921C44.6925 56.468 45.1334 55.5695 45.6496 54.7118C46.0716 54.0088 46.5088 53.1494 47.2817 52.7522C47.8667 52.4552 48.5813 52.5686 48.8383 53.205C49.1216 53.9004 48.7914 54.9485 48.6467 55.6594C48.0905 58.3728 46.8893 61.0816 45.1293 63.3386C50.3243 59.8576 55.502 56.3149 59.8872 51.8723C60.0443 51.7142 60.2849 51.9415 60.1323 52.0984C57.5434 54.7635 54.6585 57.1265 51.6571 59.3367C49.2719 61.0985 46.8313 62.7855 44.4024 64.4788C46.4688 63.5955 48.569 62.7977 50.7179 62.1385C52.7723 61.5105 55.234 60.6352 57.3601 61.3324C57.502 61.383 57.6392 61.5395 57.5761 61.6998C57.2233 62.5973 56.5032 63.0606 55.5921 63.3682C54.2648 63.821 52.8384 64.0781 51.4633 64.3779C48.9446 64.9268 46.4162 65.2836 43.87 65.6121C43.7611 65.6616 43.6484 65.6979 43.5362 65.7531C43.3705 65.8281 43.2128 65.7915 43.0921 65.7112C42.9356 65.7313 42.7791 65.7514 42.6226 65.7715C42.6032 65.7722 42.5949 65.7602 42.5754 65.7609C41.0444 66.8365 39.5298 67.936 38.0363 69.0581C38.0488 69.0499 38.0612 69.0416 38.0736 69.0334C38.9122 68.5369 39.8193 68.1449 40.7527 67.8643C42.6763 67.2777 44.6504 67.2046 46.6044 67.6031C46.8746 67.6557 46.9656 67.9629 46.851 68.1852C46.0162 69.8168 43.6911 69.8647 42.1094 70.1463C40.3088 70.4702 38.4645 70.9015 36.6305 71.1065C36.4379 71.208 36.2473 71.2994 36.0473 71.3745C36.0088 71.3948 35.969 71.4107 35.9255 71.4134C35.7607 71.4738 35.5971 71.5387 35.4215 71.5784C35.2518 71.6212 35.0639 71.5645 34.9403 71.4565C34.903 71.4812 34.8715 71.5091 34.8388 71.5325C33.6299 72.5131 32.4421 73.5162 31.2509 74.5251C31.4825 74.4222 31.7198 74.3224 31.9489 74.2106C32.6237 73.8837 33.291 73.5303 34.0042 73.2876C35.2507 72.8622 36.6041 72.7302 37.8169 73.2888C38.1395 73.4408 38.1631 73.9809 37.8206 74.1435C36.5398 74.7448 35.2103 75.26 33.8314 75.5989C32.4708 75.9327 31.0146 76.1886 29.6153 76.0341C29.5739 76.0266 29.5404 76.0123 29.5036 76.0036C28.0016 77.2707 26.4893 78.5359 24.9498 79.7565C29.8208 77.2933 34.9197 75.2749 40.1738 73.8453C44.9256 72.5517 49.8144 71.7474 54.7265 71.5165C59.5983 71.2826 64.4644 71.6066 69.3181 71.8865C70.1575 71.9365 70.999 71.9764 71.8405 72.0163C71.8836 71.9425 71.9487 71.8767 72.0464 71.8398C74.4535 70.9275 76.6144 69.452 78.3259 67.5652C79.185 66.6161 79.8782 65.5662 80.5132 64.466C80.9489 63.7068 81.3907 62.7939 82.0217 62.1179C81.9857 62.0947 81.9431 62.0828 81.9104 62.054C81.6673 61.8701 81.556 61.5781 81.5295 61.2908C81.4986 60.9524 81.658 60.6272 81.91 60.4045C81.91 60.4045 81.9088 60.4001 81.9133 60.3988C82.0228 60.2635 82.1666 60.1805 82.3268 60.1213C82.3268 60.1213 82.3268 60.1213 82.3314 60.12C82.599 59.988 82.9016 59.9459 83.1963 60.0155C83.4656 60.0826 83.7199 60.2538 83.8599 60.4903C84.0131 60.7564 84.0259 61.0476 83.9667 61.3446C83.9179 61.5912 83.7697 61.8514 83.5749 62.0154C83.3913 62.1667 83.1731 62.2468 82.9449 62.2918C82.6416 62.8046 82.2423 63.2731 81.924 63.7853C81.5726 64.3545 81.2513 64.9437 80.9011 65.5172C80.2629 66.5708 79.5077 67.5573 78.6487 68.4541C77.822 69.3085 76.8983 70.0618 75.9109 70.7283C76.6124 70.4794 77.3165 70.2393 78.0156 69.9816C80.2048 69.1684 82.3429 68.2079 84.3944 67.0958C88.5254 64.8495 92.327 62.0585 95.6966 58.8133C95.5801 58.6605 95.4748 58.4951 95.3989 58.312C95.0859 57.563 95.253 56.7746 95.2691 55.9904C95.2856 55.2252 95.0567 54.6714 94.2594 54.4384C93.8895 54.3281 93.4971 54.2955 93.1189 54.2256C92.2888 54.0684 91.4858 53.78 90.7525 53.3722C89.2429 52.526 87.973 51.1324 87.4709 49.4809C86.3405 45.7806 90.4254 43.9656 93.5122 43.6378C94.1327 43.5732 94.7441 43.5635 95.3584 43.5815C92.5159 42.2388 90.094 39.9606 89.5791 36.896C89.3169 35.3294 89.6173 33.491 90.8815 32.3571C91.5529 31.7553 92.3678 31.5602 93.2447 31.4809C94.3661 31.3806 95.1573 31.2587 95.9075 30.3591C96.9102 29.1511 97.6387 27.7537 99.466 27.8929C100.481 27.9745 101.591 28.6047 102.615 28.2607C103.622 27.9263 103.715 26.4883 104.1 25.672C104.861 24.0753 106.24 22.9284 108.076 22.7845C109.917 22.6394 111.882 23.358 113.422 24.2577C116.399 25.9951 118.379 29.3433 117.392 32.7623C118.129 31.9378 118.986 31.227 120.007 30.7507C121.246 30.1753 122.952 29.8114 124.11 30.7036C125.201 31.5437 125.307 33.0636 125.592 34.2911C125.79 35.1533 126.068 36.0593 126.841 36.5892C127.526 37.0532 128.371 37.2299 129.086 37.6427C130.679 38.5561 130.848 40.2819 131.594 41.77C132.389 43.3442 133.724 44.7955 133.28 46.698C133.113 47.4197 132.716 48.0539 132.196 48.5801C133.756 51.0284 131.861 54.2407 128.896 54.6009C127.865 54.7236 126.788 54.5975 125.73 54.3806C126.409 55.1031 126.984 55.9829 126.735 57.0036C126.583 57.6167 125.846 57.9849 125.781 58.5448C125.737 58.9282 126.007 59.3325 126.278 59.7224C126.99 59.6323 127.704 59.551 128.425 59.4917C129.343 59.4198 130.253 59.4072 131.156 59.4204C132.886 59.1257 134.624 58.8763 136.349 58.545C139.198 57.9987 142.018 57.2987 144.778 56.4016C150.408 54.5767 155.768 51.7909 160.327 48.0556C160.374 48.0139 160.427 48.0086 160.481 48.0078C160.035 47.6098 159.759 47.0264 159.762 46.4409C159.764 45.5894 160.375 44.9141 161.173 44.6239C161.842 44.3795 162.633 44.4524 163.261 44.7804C163.27 44.7779 163.278 44.7709 163.287 44.7684C163.674 44.7122 163.999 44.8541 164.158 45.2135C164.283 45.5017 164.265 45.8207 164.187 46.1229C164.054 46.6641 163.711 47.1595 163.344 47.5856C163.007 47.975 162.558 48.3195 162.033 48.4285C161.61 48.5138 161.181 48.4724 160.806 48.2588C160.789 48.2494 160.775 48.2343 160.758 48.2249C160.758 48.2772 160.739 48.3347 160.68 48.3847C156.149 52.1691 150.916 54.8812 145.365 56.917C142.508 57.96 139.575 58.801 136.608 59.4707C136.206 59.5597 135.802 59.6443 135.399 59.7289C137.68 60.0354 139.94 60.5242 142.209 61.0817C144.784 61.7149 147.369 62.369 149.985 62.8149C151.906 62.8516 153.826 62.8128 155.748 62.7115C155.838 62.5246 156.019 62.379 156.297 62.3724C164.216 62.2117 170.922 57.2518 177.645 53.6847C180.52 52.1613 183.645 50.5866 186.872 49.9533C188.982 49.5381 192.182 49.825 192.345 52.4937C192.513 55.2658 189.344 56.6339 187.354 57.8618C186.667 58.2827 186.054 58.7777 185.638 59.3792C187.229 61.3578 188.953 63.9883 187.345 66.488C187.088 66.8879 186.868 67.2063 186.861 67.6885C186.86 68.0024 186.917 68.3098 186.93 68.6199C186.955 69.2501 186.911 69.8995 186.652 70.4853C186.206 71.5041 184.975 71.7921 184.515 72.7624C184.503 72.7896 184.48 72.796 184.465 72.8143C184.646 72.8969 184.831 72.9782 185.011 73.0607C186.674 73.8069 188.515 74.5555 189.629 76.0404C190.569 77.2933 190.574 78.9749 189.602 80.2408C189.497 80.3747 189.368 80.4918 189.25 80.6151C189.487 80.5821 189.744 80.5195 189.972 80.4222C190.507 80.1916 190.96 79.7746 191.249 79.2801C191.282 79.2232 191.326 79.1872 191.373 79.1599C191.274 79.002 191.273 78.8029 191.467 78.6389C192.12 78.0757 192.801 77.6138 193.127 76.7952C193.465 75.9494 193.272 75.1906 192.979 74.3741C192.511 73.0887 192.155 71.3106 193.693 70.5041C194.369 70.1482 195.167 70.1908 195.861 69.8631C196.511 69.5526 197.07 69.0584 197.458 68.4602C198.312 67.1606 198.031 65.7706 197.82 64.3512C197.645 63.2022 197.55 61.969 198.249 60.9411C199.091 59.7022 200.716 59.399 201.681 58.3014C203.384 56.3693 202.657 53.2121 200.828 51.6806C198.509 49.7348 195.072 49.7947 192.267 50.6378C191.691 50.8087 191.455 49.9479 192.025 49.7739C195.217 48.7889 199.333 48.7669 201.757 51.2822C203.434 53.0228 204.045 55.8514 202.916 58.0645C202.205 59.4524 200.845 59.9286 199.696 60.8781C198.263 62.0592 198.929 63.8217 199.172 65.3367C199.406 66.8209 199.221 68.2132 198.257 69.4532C197.792 70.0543 197.194 70.5688 196.504 70.9097C196.185 71.0702 195.849 71.2025 195.5 71.2907C195.097 71.3942 194.616 71.3959 194.257 71.6247C193.433 72.1552 193.967 73.3414 194.214 74.0282C194.483 74.7609 194.667 75.47 194.563 76.2551C194.388 77.578 193.421 79.2132 191.958 79.4428C191.934 79.4447 191.913 79.441 191.889 79.443C191.889 79.4953 191.88 79.5502 191.851 79.6057C191.501 80.2505 190.946 80.739 190.291 81.0842C189.96 81.253 189.599 81.3873 189.235 81.456C188.908 81.5145 188.548 81.5964 188.237 81.4885C187.66 81.8832 187.035 82.2106 186.395 82.504C187.108 83.8062 187.029 85.4686 185.879 86.5895C185.293 87.1626 184.505 87.5259 183.69 87.6308C183.24 87.6904 182.778 87.6725 182.338 87.558C181.969 87.4667 181.259 86.9668 180.89 87.1604C180.35 87.4402 180.297 88.6197 180.067 89.1121C179.775 89.7359 179.277 90.2223 178.651 90.5308C177.02 91.3351 175.26 90.8396 173.792 89.9862ZM43.726 63.3801C45.8355 60.7922 47.3412 57.8555 47.8702 54.5364C47.8986 54.3573 48.0507 53.9534 47.9648 53.7873C47.7391 53.3323 47.4414 53.6725 47.2362 53.8869C46.8751 54.2638 46.6003 54.7734 46.3322 55.2193C45.7741 56.1554 45.2983 57.1397 44.9135 58.1507C44.5428 59.1246 44.2528 60.1234 44.0514 61.1401C43.9004 61.8812 43.8264 62.6341 43.726 63.3801ZM46.4285 64.5385C47.7719 64.3712 49.1121 64.1573 50.437 63.9238C51.7255 63.7006 53.0016 63.4333 54.2758 63.1238C55.1134 62.9223 56.3916 62.6973 56.8444 61.8763C54.7085 61.6001 52.6693 62.3 50.6433 62.9771C49.2191 63.4522 47.8201 63.9822 46.4285 64.5385ZM36.4438 69.1431C37.804 66.6512 38.8904 63.9888 38.4305 61.2083C37.8098 62.4994 37.7061 64.0402 37.4234 65.3982C37.1628 66.6597 36.824 67.9051 36.4438 69.1431ZM41.3051 69.3971C42.2287 69.2571 43.1644 69.1423 44.0861 68.9601C44.6575 68.8427 45.2554 68.6799 45.6947 68.3191C43.9954 68.1631 42.2425 68.3595 40.6311 68.9205C40.0272 69.1325 39.4626 69.4143 38.9158 69.7244C39.7152 69.6145 40.5172 69.5133 41.3051 69.3971ZM30.0439 73.6891C30.6433 72.5846 31.2079 71.4614 31.6778 70.2981C32.0039 69.4984 32.3172 68.688 32.489 67.8459C32.5679 67.4435 32.6111 67.0368 32.5902 66.6291C32.5811 66.3512 32.549 65.6233 32.2185 65.4782C32.0162 65.3875 31.9812 65.578 31.8919 65.7504C31.7865 65.9701 31.6938 66.2005 31.5999 66.4265C31.4541 66.8001 31.3186 67.1756 31.198 67.5517C30.9397 68.3657 30.7357 69.1977 30.573 70.0372C30.4049 70.8925 30.2794 71.7596 30.1676 72.6229C30.1199 72.9785 30.0825 73.336 30.0439 73.6891ZM125.541 60.1428C125.469 60.0063 125.364 59.931 125.246 59.8785C125.265 59.8734 125.284 59.8727 125.302 59.8676C124.92 59.2569 124.554 58.5844 124.993 57.9053C125.395 57.2698 126.146 57.1638 126.12 56.2632C126.098 55.4326 125.435 54.8008 124.882 54.2475C124.861 54.2248 124.869 54.2034 124.859 54.1826C124.299 54.0447 123.75 53.8896 123.223 53.7471C122.297 53.4932 121.381 53.2033 120.481 52.8661C119.61 52.5446 118.755 52.2135 118.087 51.5641C117.834 51.3261 118.09 50.9786 118.406 51.0184C119.929 51.2287 121.356 52.0979 122.792 52.5939C124.227 53.0856 125.713 53.5153 127.213 53.7653C128.804 54.0276 130.456 53.7836 131.545 52.499C132.442 51.4395 132.533 49.9927 131.905 48.8421C131.423 49.2579 130.859 49.5964 130.266 49.8292C128.447 50.5434 126.347 50.4996 124.436 50.379C122.444 50.2479 120.492 49.9251 118.65 49.1721C118.349 49.0471 118.578 48.6359 118.857 48.686C120.896 49.0369 122.935 49.4212 125.015 49.4801C126.907 49.5346 129.143 49.5545 130.795 48.4924C132.414 47.4492 132.698 45.834 131.905 44.2119C131.534 43.4506 131.061 42.7419 130.724 41.9615C130.434 41.2963 130.262 40.5935 129.995 39.9219C129.657 39.0659 129.155 38.484 128.321 38.0665C127.716 37.7654 127.074 37.5269 126.533 37.1222C125.586 36.4083 125.232 35.338 125.001 34.2333C124.735 32.9673 124.598 31.1992 123.09 30.7614C121.386 30.2738 119.422 31.4183 118.236 32.5306C116.97 33.7124 116.107 35.2237 115.351 36.7334C114.549 38.327 113.787 39.9382 113.008 41.54C112.894 41.7812 112.528 41.5795 112.643 41.3427C113.678 39.2131 114.634 37.0151 115.822 34.9612C116.156 34.3827 116.529 33.8217 116.946 33.2914C116.736 33.2789 116.539 33.1201 116.621 32.869C117.966 28.8317 114.808 25.2954 111.106 24.0226C109.301 23.4017 107.095 23.1403 105.654 24.6946C105.021 25.3807 104.655 26.2152 104.372 27.0791C104.17 27.6918 103.949 28.3052 103.384 28.6917C101.916 29.6927 100.362 28.4262 98.8335 28.7215C97.427 28.9968 96.8876 30.6835 95.8574 31.4951C94.5159 32.5461 92.5756 31.8633 91.3584 33.1124C90.0696 34.4387 90.2043 36.5497 90.8452 38.1005C92.1547 41.2657 95.2589 42.5778 98.2028 43.9491C100.206 44.4192 102.093 45.2976 103.714 46.5594C103.902 46.7018 103.653 47.0235 103.462 46.8868C100.484 44.7599 96.572 43.8451 92.8854 44.5217C91.4694 44.7807 89.9358 45.2865 88.9631 46.391C87.667 47.8667 88.3562 49.8176 89.4904 51.1303C90.5404 52.3525 91.9694 53.1215 93.5791 53.4311C94.8553 53.6724 95.9888 54.1059 96.0902 55.5369C96.1449 56.3107 95.8701 57.1531 96.1384 57.9004C96.373 58.562 97.0219 58.9316 97.6237 59.2383C98.2557 59.5651 98.9196 59.8307 99.4927 60.2453C100.136 60.7164 100.557 61.3969 101.182 61.8731C102.437 62.8287 104.346 62.7835 105.663 61.9104C107.117 60.9466 107.687 59.4035 108.087 57.8321C108.156 57.5514 108.53 57.6414 108.559 57.8853C109.001 61.6025 104.463 64.7994 101.091 62.7924C100.225 62.2792 99.7348 61.3897 98.9103 60.8316C98.2668 60.3939 97.5126 60.1394 96.8406 59.7573C96.6598 59.6558 96.4903 59.5417 96.3286 59.4206C92.9154 62.7208 89.0521 65.5719 84.8659 67.8669C82.783 69.0069 80.6324 70.0279 78.4215 70.9042C77.3115 71.3436 76.1971 71.732 75.0422 72.0461C74.951 72.0716 74.8521 72.1041 74.7564 72.1309C77.8392 72.2273 80.9259 72.2323 84.0047 71.9637C89.1335 71.5247 94.106 70.1598 98.9515 68.4643C102.748 67.1293 106.526 65.5858 110.338 64.1467C109.323 63.1002 107.227 60.6355 108.548 60.1418C108.649 60.3273 108.769 60.4933 108.886 60.665C108.911 61.0191 109.656 62.0275 109.77 62.1904C110.143 62.7135 110.57 63.2023 111.038 63.6463C111.099 63.7054 111.175 63.7505 111.241 63.8082C111.291 63.7942 111.34 63.7757 111.388 63.7573C111.863 64.2756 112.352 64.7756 112.866 65.2592C113.086 65.4683 113.332 65.504 113.559 65.4546C113.699 65.5342 113.824 65.6277 113.967 65.7016C115.061 66.2744 116.213 66.7028 117.409 67.0283C118.682 67.3799 120.136 67.7808 121.473 67.6248C123.038 67.4429 124.227 65.7785 125.04 64.5762C125.542 63.8269 125.935 62.9513 125.993 62.07C126.176 61.862 126.244 61.5623 126.07 61.2402C125.881 60.8797 125.731 60.5033 125.541 60.1428ZM185.301 60.0012C185.151 60.3762 185.063 60.7811 185.073 61.2393C185.109 62.5414 185.693 63.7659 185.691 65.0738C185.689 66.3293 185.082 67.4408 183.959 68.0977C182.652 68.8681 180.931 68.8987 179.775 69.9263C179.554 70.1212 179.365 70.3406 179.186 70.5618C180.819 71.1643 182.401 71.8811 183.982 72.5979C183.78 71.6324 184.996 71.2537 185.56 70.6914C186.582 69.6731 185.82 68.3036 186.122 67.1207C186.289 66.4703 186.831 65.9856 187.034 65.3439C187.233 64.7034 187.227 64.0158 187.096 63.3727C186.834 62.1055 186.084 61.0227 185.301 60.0012ZM173.142 68.5238C170.186 68.4585 167.246 67.6948 164.399 67.0045C162.249 66.4851 160.134 65.8086 158.286 64.6339C160.211 66.5571 162.289 68.2756 164.679 69.7024C166.146 70.5746 167.679 71.3288 169.27 71.9718C170.892 72.6248 172.693 73.1612 174.485 72.9299C176.345 72.694 177.147 71.4709 178.122 70.0758C178.916 68.9309 179.866 68.2702 181.204 67.8193C182.425 67.4103 184.046 67.0939 184.424 65.6902C184.74 64.5224 184.264 63.2251 184.136 62.0676C184.013 60.9613 184.071 59.8562 184.723 58.8845C185.424 57.8465 186.529 57.1612 187.612 56.5536C188.778 55.8941 189.981 55.3144 190.807 54.2274C191.624 53.1474 191.71 51.6495 190.351 50.9893C189.235 50.4417 187.792 50.6415 186.623 50.955C185.069 51.3714 183.555 51.9667 182.1 52.6266C179.146 53.9726 176.363 55.6463 173.575 57.2879C169.436 59.7315 165.113 62.1361 160.411 63.1497C166.035 63.4086 171.643 62.5784 177.149 61.1876C177.396 61.1231 177.582 61.4893 177.334 61.6017C171.764 64.08 165.574 64.8164 159.532 64.3988C161.223 65.2608 163.115 65.7339 164.99 66.1307C167.732 66.7123 170.564 67.1071 173.209 68.0439C173.46 68.1306 173.444 68.5296 173.142 68.5238ZM177.397 89.7889C178.3 89.6452 178.911 89.108 179.175 88.2637C179.353 87.7053 179.464 87.1036 179.836 86.6239C180.873 85.2922 182.209 86.6433 183.476 86.5166C185.378 86.3259 186.276 84.0966 185.083 82.6958C184.767 82.3231 184.905 81.8852 185.352 81.6933C186.515 81.1964 187.824 80.5394 188.581 79.505C189.53 78.2121 188.964 76.84 187.845 75.8985C186.562 74.8082 184.863 74.2002 183.338 73.4914C181.769 72.7664 180.2 72.0558 178.691 71.214C178.147 71.9893 177.638 72.7833 176.753 73.3071C175.446 74.0774 173.87 74.1529 172.412 73.9292C169.171 73.4256 165.987 71.7412 163.257 70.0629C162.899 69.8397 162.551 69.5951 162.196 69.3619C163.666 70.6804 165.114 72.0286 166.676 73.2547C170.846 76.5265 175.556 78.8383 180.361 81.1C180.65 81.2377 180.451 81.6834 180.149 81.6063C175.126 80.2662 170.528 77.4951 166.502 74.3684C164.347 72.6905 162.422 70.7818 160.384 68.9806C159.451 68.1582 158.472 67.4008 157.46 66.6814C159.663 68.6358 161.591 70.8862 163.548 73.0665C166.718 76.5945 170.013 80.078 172.886 83.8415C173.095 84.1156 172.643 84.4468 172.405 84.2138C169.058 80.9637 166.051 77.3519 162.982 73.8525C160.477 70.9941 158.028 67.9533 154.93 65.6648C155.996 66.6973 156.909 67.9055 157.698 69.1438C159.785 71.5776 161.773 74.0963 163.551 76.7594C163.671 76.9398 163.385 77.0959 163.256 76.9325C161.943 75.2611 160.626 73.5954 159.298 71.9424C159.915 73.0912 160.527 74.2412 161.207 75.3532C162.163 76.9249 163.229 78.4327 164.383 79.8682C166.721 82.7739 169.457 85.3492 172.464 87.5964C173.8 88.5958 175.552 90.0778 177.397 89.7889Z" fill="white"/>
<path d="M161.618 47.4561C161.599 47.4568 161.575 47.4588 161.555 47.4595C161.54 47.4589 161.472 47.4447 161.46 47.4529C161.497 47.4282 161.568 47.4702 161.465 47.4516C161.438 47.4448 161.407 47.4392 161.375 47.4292C161.363 47.423 161.348 47.4224 161.337 47.4161C161.318 47.4023 161.211 47.3517 161.194 47.3467C161.187 47.3391 161.147 47.3172 161.134 47.3065C161.128 47.3034 161.14 47.3097 161.127 47.299C161.077 47.2607 161.03 47.2168 160.988 47.1715C160.967 47.1489 160.945 47.1219 160.924 47.0993C161.01 47.1986 160.92 47.0861 160.903 47.0622C160.872 47.0188 160.844 46.9741 160.82 46.9238C160.803 46.8955 160.789 46.8659 160.776 46.8363C160.834 46.9534 160.787 46.8571 160.775 46.8319C160.752 46.7671 160.735 46.7054 160.717 46.6437C160.713 46.6115 160.705 46.5807 160.701 46.5486C160.699 46.5441 160.699 46.5441 160.699 46.5441C160.698 46.5397 160.699 46.5442 160.698 46.5397C160.694 46.4742 160.687 46.4143 160.693 46.3463C160.695 46.3173 160.695 46.2839 160.696 46.2504C160.7 46.2492 160.696 46.2504 160.7 46.2492C160.699 46.2448 160.7 46.2492 160.702 46.2391C160.719 46.1772 160.732 46.1167 160.753 46.0536C160.769 46.0208 160.789 45.9866 160.804 45.9538C160.824 45.9197 160.85 45.8887 160.87 45.8546C160.876 45.8433 160.876 45.8433 160.875 45.8389C160.884 45.8363 160.88 45.8376 160.891 45.8249C160.945 45.7718 160.993 45.7155 161.051 45.6611C161.064 45.6529 161.161 45.5782 161.079 45.639C161.1 45.6238 161.12 45.6086 161.142 45.5978C161.215 45.544 161.293 45.5078 161.374 45.4615C161.387 45.4576 161.383 45.4589 161.386 45.4532C161.395 45.4507 161.391 45.4519 161.404 45.4481C161.453 45.4297 161.503 45.4156 161.552 45.3972C161.625 45.3768 161.702 45.3551 161.778 45.3434C161.787 45.3409 161.839 45.3357 161.849 45.3331C161.891 45.326 161.934 45.3234 161.973 45.322C162.065 45.3153 162.159 45.3175 162.249 45.3254C162.258 45.3229 162.31 45.3321 162.324 45.3283C162.361 45.337 162.396 45.3413 162.433 45.35C162.516 45.3648 162.6 45.3841 162.682 45.4134C162.686 45.4121 162.807 45.459 162.729 45.4239C162.774 45.4446 162.825 45.4684 162.87 45.489C162.95 45.5284 163.022 45.5748 163.094 45.6212C163.096 45.63 163.095 45.6256 163.097 45.6344C163.095 45.6779 163.096 45.7157 163.098 45.758C163.095 45.7681 163.098 45.758 163.095 45.7681C163.09 45.8172 163.079 45.8677 163.068 45.9138C163.055 45.9554 163.037 45.9983 163.026 46.0444C163.022 46.0501 163.005 46.093 162.996 46.1144C162.967 46.1845 162.931 46.2514 162.891 46.3197C162.852 46.3879 162.812 46.4561 162.766 46.5212C162.738 46.5622 162.711 46.6033 162.683 46.6444C162.676 46.6557 162.629 46.7164 162.613 46.7448C162.489 46.8984 162.354 47.0312 162.216 47.1698C162.207 47.1723 162.2 47.1837 162.188 47.1919C162.159 47.2141 162.127 47.2375 162.099 47.2597C162.057 47.2857 162.015 47.3117 161.973 47.3376C161.961 47.3459 161.878 47.3834 161.861 47.3929C161.789 47.4177 161.706 47.4552 161.633 47.4567C161.628 47.458 161.627 47.4536 161.618 47.4561Z" fill="white"/>
<path d="M116.627 49.6865C116.735 49.4378 116.793 49.1741 116.791 48.9037C116.793 48.7178 116.725 48.5277 116.737 48.3436C116.751 48.1828 116.81 48.0238 116.834 47.8649C116.98 46.8968 116.393 45.9585 115.506 45.5796C115.601 44.7782 114.83 44.1481 114.092 43.8317C113.791 43.7023 113.477 43.5811 113.23 43.3652C113.033 43.1875 112.89 42.9611 112.673 42.7986C112.279 42.4955 111.8 42.4537 111.313 42.5569C111.053 42.6108 110.813 42.7017 110.571 42.8028C110.457 42.8492 110.26 42.9898 110.14 42.9808C109.981 42.9732 109.984 42.8628 109.907 42.7276C109.897 42.7112 109.884 42.7006 109.87 42.6855C109.979 42.4412 109.973 42.1387 110.003 41.8783C110.056 41.4356 110.099 40.9955 110.128 40.5548C110.196 39.5707 110.206 38.5887 110.172 37.6093C110.108 35.7306 109.841 33.8659 109.389 32.0434C109.367 31.964 109.245 32.0029 109.261 32.0791C109.638 33.9321 109.826 35.8142 109.807 37.707C109.796 38.5989 109.731 39.4872 109.625 40.3725C109.567 40.8499 109.496 41.331 109.414 41.8104C109.39 41.9359 109.356 42.0595 109.328 42.1863C109.223 42.1299 109.126 42.0622 108.991 42.0381C107.89 41.8239 107.125 42.7228 106.542 43.4995C106.418 43.672 106.713 43.884 106.844 43.7191C107.35 43.0876 108.325 41.9585 109.227 42.6329C109.264 42.6605 109.286 42.702 109.316 42.741C109.332 42.7983 109.345 42.8613 109.38 42.9179C109.399 42.9506 109.434 42.9505 109.458 42.9674C109.548 43.1656 109.618 43.3791 109.812 43.5101C110.102 43.7045 110.421 43.5817 110.733 43.4848C111.095 43.3739 111.515 43.1707 111.9 43.2482C112.337 43.3349 112.584 43.8502 112.929 44.0961C113.354 44.4047 115.026 44.9012 114.598 45.6534C114.463 45.8909 114.586 46.2081 114.865 46.2727C115.72 46.4657 116.03 47.2204 115.865 47.9987C115.777 48.4037 115.921 48.8148 115.809 49.2028C115.697 49.5908 115.332 49.9211 115.041 50.1976C114.847 50.3804 114.995 50.7335 115.266 50.7193C115.934 50.6842 116.376 50.2799 116.627 49.6865Z" fill="white"/>
<path d="M110.295 51.6702C109.913 51.34 109.472 51.0976 109.079 50.7845C108.663 50.4544 108.302 50.0611 107.991 49.6348C107.676 49.1954 107.394 48.7324 107.152 48.2536C106.903 47.7528 106.504 47.1516 106.554 46.5766C106.594 46.1233 105.876 46.139 105.829 46.5848C105.769 47.2481 106.162 47.8941 106.436 48.4686C106.704 49.021 106.971 49.5735 107.303 50.0892C107.889 51.0086 108.853 52.2217 110.105 52.1133C110.321 52.0955 110.477 51.8284 110.295 51.6702Z" fill="white"/>
<path d="M112.866 47.118C112.856 46.8168 112.769 46.5606 112.558 46.3344C112.369 46.1308 112.103 45.9723 111.842 45.8648C111.377 45.6767 110.806 45.6037 110.319 45.7926C109.878 45.341 109.142 45.2049 108.578 45.5579C108.285 45.7398 108.557 46.1864 108.856 46.0076C109.225 45.7807 109.752 45.8753 109.99 46.2318L109.971 46.1657C110.006 46.3414 110.148 46.4443 110.335 46.4109C110.75 46.3325 111.15 46.3059 111.537 46.4779C111.734 46.5654 111.893 46.6777 112.042 46.8215C112.202 46.9716 112.377 47.1078 112.524 47.2617C112.642 47.3854 112.873 47.2825 112.866 47.118Z" fill="white"/>
<path d="M112.978 51.3034C113.127 51.2191 113.194 51.0575 113.22 50.903C113.265 50.6097 113.192 50.3308 113.128 50.0493C113.029 49.6254 112.919 48.9526 112.343 48.9477C112.23 48.9506 112.135 49.0487 112.132 49.159C112.129 49.2737 112.231 49.3547 112.341 49.3618C112.35 49.3593 112.376 49.3661 112.388 49.3724C112.405 49.3818 112.418 49.3924 112.446 49.4226C112.431 49.4031 112.456 49.439 112.463 49.4465C112.472 49.4628 112.482 49.4792 112.491 49.4956C112.514 49.5415 112.51 49.5283 112.525 49.5812C112.581 49.7461 112.573 49.9289 112.58 50.1268C112.582 50.2402 112.59 50.3568 112.591 50.4659C112.589 50.5094 112.586 50.5529 112.584 50.5964C112.58 50.6544 112.594 50.5648 112.585 50.6008C112.576 50.6222 112.578 50.6455 112.574 50.6657C112.565 50.6872 112.559 50.703 112.555 50.7231C112.548 50.749 112.521 50.7945 112.56 50.7219C112.527 50.7787 112.497 50.8299 112.478 50.8873C112.458 50.9359 112.458 50.9882 112.461 51.0348C112.394 51.1485 112.439 51.2738 112.561 51.3206C112.593 51.3306 112.618 51.333 112.649 51.3386C112.664 51.3392 112.68 51.3442 112.695 51.3448C112.722 51.3516 112.753 51.3572 112.787 51.357C112.854 51.3524 112.918 51.3345 112.978 51.3034Z" fill="white"/>
<path d="M110.679 49.0761C110.668 49.037 110.668 49.0603 110.679 49.0761V49.0761Z" fill="white"/>
<path d="M111.225 49.7458C111.276 49.6649 111.299 49.535 111.303 49.4436C111.306 49.2999 111.277 49.1418 111.229 49.0077C111.127 48.7131 110.914 48.4447 110.615 48.3241C110.499 48.2759 110.342 48.296 110.274 48.4198C110.218 48.5354 110.243 48.6947 110.368 48.7548C110.395 48.766 110.424 48.7817 110.449 48.7986C110.454 48.8018 110.471 48.8068 110.478 48.8143C110.479 48.8187 110.478 48.8143 110.479 48.8187C110.503 48.8356 110.529 48.857 110.549 48.8752C110.557 48.8871 110.57 48.8978 110.577 48.9053C110.579 48.9142 110.577 48.9053 110.578 48.9097C110.597 48.9235 110.662 49.0336 110.666 49.0468C110.673 49.0544 110.674 49.0777 110.686 49.084C110.681 49.0852 110.68 49.0808 110.679 49.0764C110.691 49.1016 110.699 49.1324 110.707 49.1589C110.714 49.1853 110.723 49.2162 110.726 49.2439L110.727 49.2483C110.725 49.2395 110.731 49.2615 110.729 49.2716C110.727 49.3006 110.725 49.3296 110.725 49.363C110.722 49.4065 110.72 49.3643 110.729 49.3429C110.722 49.3542 110.723 49.3731 110.722 49.3876C110.718 49.4078 110.715 49.4324 110.712 49.457C110.71 49.4671 110.706 49.4728 110.708 49.4772C110.701 49.522 110.683 49.5649 110.682 49.6128C110.682 49.684 110.71 49.7476 110.724 49.815C110.729 49.8704 110.782 49.9175 110.832 49.9369C110.896 49.9568 110.943 49.9485 111.004 49.9218C111.092 49.883 111.175 49.831 111.225 49.7458Z" fill="white"/>
<path d="M109.44 44.7079L109.434 44.7047C109.429 44.706 109.429 44.706 109.429 44.706C109.467 44.7002 109.472 44.6989 109.44 44.7079Z" fill="white"/>
<path d="M110.295 44.9386C110.437 44.9368 110.556 44.8179 110.562 44.6786C110.561 44.3792 110.149 44.2237 109.898 44.1704C109.774 44.1481 109.642 44.1328 109.513 44.1453C109.465 44.1492 109.414 44.1589 109.362 44.1685C109.313 44.0968 109.259 44.0264 109.174 43.9883C108.964 43.8856 108.702 43.8973 108.53 44.0737C108.439 44.1705 108.431 44.3344 108.536 44.4285C108.633 44.5108 108.787 44.5153 108.888 44.4204C108.883 44.4217 108.88 44.4273 108.88 44.4273C108.88 44.4273 108.888 44.4204 108.892 44.4191C108.898 44.4222 108.892 44.4191 108.898 44.4222C108.903 44.421 108.908 44.4241 108.919 44.4259C108.924 44.4291 108.93 44.4322 108.937 44.4397C108.943 44.4429 108.949 44.446 108.95 44.4504C108.956 44.4536 108.956 44.4536 108.957 44.458C108.94 44.6244 109.088 44.8016 109.274 44.7304C109.288 44.7266 109.302 44.7227 109.315 44.7189C109.271 44.7172 109.222 44.7211 109.178 44.7194C109.263 44.743 109.346 44.7245 109.434 44.7046C109.444 44.7065 109.458 44.7027 109.467 44.7001C109.497 44.7013 109.526 44.698 109.55 44.696C109.579 44.6972 109.609 44.6983 109.634 44.7008C109.649 44.7014 109.664 44.7019 109.679 44.7025C109.639 44.6995 109.633 44.6964 109.664 44.7019C109.722 44.7143 109.773 44.7236 109.828 44.7417C109.838 44.7436 109.848 44.7454 109.86 44.7517C109.881 44.7554 109.911 44.7754 109.928 44.7848C109.95 44.793 109.967 44.8023 109.985 44.8117C109.998 44.8224 110.079 44.8663 110.008 44.8243C110.067 44.86 110.103 44.9021 110.173 44.9208C110.211 44.9339 110.255 44.9356 110.295 44.9386Z" fill="white"/>
<path d="M114.575 50.0952C114.583 50.0883 114.59 50.0958 114.595 50.0945L114.603 50.0876C114.838 50.0168 114.95 49.8002 114.964 49.5537C114.972 49.3709 114.906 49.223 114.841 49.0606C114.827 49.031 114.802 48.9763 114.797 48.9587C114.785 48.9335 114.773 48.9083 114.757 48.8844C114.747 48.8681 114.733 48.853 114.718 48.8335C114.841 48.6944 114.93 48.522 114.944 48.3424C114.971 47.8973 114.567 47.5066 114.111 47.5108C113.926 47.5152 113.749 47.674 113.758 47.8618C113.766 48.0496 113.91 48.1947 114.107 48.1965C114.117 48.1984 114.112 48.1953 114.117 48.1984C114.122 48.1971 114.117 48.1984 114.128 48.2002C114.182 48.2183 114.093 48.2004 114.128 48.2002C114.138 48.2021 114.139 48.2065 114.145 48.2096C114.164 48.2234 114.178 48.2385 114.196 48.2523C114.145 48.2096 114.184 48.2416 114.201 48.2699C114.206 48.2687 114.2 48.2655 114.201 48.2699C114.207 48.2731 114.205 48.2832 114.206 48.2876C114.209 48.2964 114.21 48.3008 114.207 48.3065C114.208 48.3109 114.208 48.3109 114.205 48.3166C114.201 48.3223 114.197 48.3235 114.189 48.3305C114.184 48.3318 114.188 48.3261 114.18 48.333C114.176 48.3387 114.181 48.3375 114.176 48.3387C114.167 48.3413 114.158 48.3438 114.145 48.3477C114.14 48.3489 114.149 48.3464 114.134 48.3458C114.13 48.3471 114.134 48.3458 114.13 48.3471C113.924 48.3144 113.722 48.3996 113.639 48.594C113.559 48.7827 113.631 49.005 113.816 49.1052C113.822 49.1083 113.864 49.1346 113.881 49.144C113.919 49.1716 113.948 49.2062 113.982 49.2395C113.982 49.2395 113.982 49.2395 113.983 49.2439C113.998 49.2634 114.008 49.2797 114.023 49.2992C114.034 49.32 114.046 49.3451 114.056 49.3659C114.056 49.3659 114.056 49.3659 114.058 49.3703C114.064 49.3923 114.07 49.4144 114.076 49.4364C114.074 49.4465 114.074 49.4465 114.075 49.4509C114.083 49.4963 114.092 49.5795 114.1 49.6248C114.097 49.6349 114.1 49.6437 114.101 49.6481C114.106 49.6992 114.11 49.7502 114.124 49.7987C114.161 49.9309 114.231 50.0252 114.356 50.0853C114.341 50.0658 114.32 50.0432 114.303 50.0193C114.37 50.1004 114.459 50.1372 114.565 50.0934L114.483 50.1164C114.517 50.1162 114.547 50.0985 114.575 50.0952Z" fill="white"/>
<path d="M114.829 49.0399C114.837 49.0475 114.838 49.052 114.84 49.061C114.853 49.0864 114.855 49.0954 114.829 49.0399Z" fill="white"/>
<path d="M109.779 49.2857C109.775 49.2013 109.772 49.1023 109.749 49.0186C109.723 48.926 109.666 48.8279 109.622 48.7404C109.557 48.6159 109.483 48.5083 109.394 48.4002C109.169 48.1256 108.944 47.8654 108.68 47.6256C108.515 47.4724 108.212 47.4621 108.051 47.6404C107.882 47.8257 107.885 48.0815 108.057 48.2568C108.152 48.3535 108.24 48.4572 108.328 48.5609C108.336 48.5684 108.343 48.576 108.344 48.5804C108.365 48.603 108.383 48.6313 108.405 48.6583C108.451 48.7168 108.493 48.7809 108.536 48.8451C108.608 48.9627 108.676 49.0816 108.757 49.1966C108.796 49.2476 108.832 49.3042 108.872 49.3595C108.929 49.4431 108.996 49.5053 109.073 49.5693C109.213 49.6823 109.356 49.8419 109.556 49.7857C109.788 49.7206 109.794 49.4766 109.779 49.2857Z" fill="white"/>
<path d="M107.046 42.0745C106.882 41.2601 106.66 40.5903 106.279 39.846C105.888 39.0809 105.472 38.3323 105.026 37.6014C104.166 36.1976 103.208 34.8641 102.164 33.5927C102.083 33.4965 101.905 33.6321 101.982 33.7339C102.962 35.0377 103.855 36.4036 104.643 37.8278C105.03 38.5273 105.392 39.2389 105.724 39.9683C105.898 40.3427 106.054 40.7266 106.242 41.0972C106.428 41.4634 106.682 41.7915 106.902 42.1387C106.948 42.2161 107.065 42.1595 107.046 42.0745Z" fill="white"/>
<path d="M104.247 43.7955C103.512 42.9983 102.639 42.354 101.737 41.7464C100.835 41.1388 99.8866 40.5963 98.9043 40.1062C98.6081 39.961 98.3479 40.4 98.642 40.5553C99.5983 41.0574 100.521 41.6164 101.405 42.2291C102.284 42.8387 103.112 43.5146 103.98 44.1412C104.194 44.2905 104.403 43.9658 104.247 43.7955Z" fill="white"/>
<path d="M106.252 49.252C104.765 48.6086 103.119 48.5375 101.504 48.6289C99.8303 48.7223 98.1733 49.0155 96.5221 49.3119C96.2733 49.3531 96.3791 49.7132 96.6246 49.6777C98.2149 49.427 99.8135 49.1882 101.422 49.1271C103.012 49.0667 104.577 49.2509 106.132 49.5424C106.298 49.572 106.43 49.3258 106.252 49.252Z" fill="white"/>
<path d="M101.239 54.8545C102.959 53.2936 104.844 51.9571 106.751 50.6286C106.896 50.5311 106.769 50.3241 106.615 50.4054C104.523 51.4955 102.637 52.9701 100.899 54.5362C100.677 54.7411 101.015 55.0551 101.239 54.8545Z" fill="white"/>
<path d="M105.411 57.7311C105.63 56.6191 105.961 55.5232 106.424 54.4759C106.881 53.44 107.47 52.4761 108.017 51.4814C108.104 51.3192 107.876 51.1359 107.746 51.2864C106.987 52.155 106.446 53.2196 106.03 54.2774C105.594 55.3694 105.288 56.5056 105.11 57.6584C105.08 57.8476 105.372 57.9273 105.411 57.7311Z" fill="white"/>
<path d="M115.479 43.2578C116.306 42.5269 117.082 41.7388 117.928 41.0217C118.79 40.2951 119.692 39.6195 120.633 38.9991C120.857 38.8508 120.648 38.51 120.425 38.6582C119.483 39.2786 118.575 39.9467 117.717 40.672C116.841 41.4025 115.98 42.1713 115.279 43.0713C115.171 43.2109 115.342 43.3818 115.479 43.2578Z" fill="white"/>
<path d="M125.483 41.8947C125.709 41.841 125.61 41.5073 125.388 41.5553C122.47 42.1876 119.536 43.4471 117.382 45.5245C117.289 45.6125 117.412 45.7728 117.524 45.6986C119.983 44.0065 122.542 42.5857 125.483 41.8947Z" fill="white"/>
<path d="M123.685 45.6834C122.157 45.6648 120.64 45.8428 119.17 46.2784C119.017 46.3262 119.08 46.551 119.236 46.512C120.695 46.1792 122.192 45.9829 123.685 45.9973C123.892 46.001 123.893 45.6871 123.685 45.6834Z" fill="white"/>
<path d="M121.213 56.5495C118.989 55.7467 117.114 54.4227 115.365 52.8972C115.215 52.7635 115.022 52.9697 115.147 53.1154C116.662 54.9298 118.85 56.1802 121.099 56.9665C121.366 57.0582 121.475 56.6425 121.213 56.5495Z" fill="white"/>
<path d="M118.937 59.0844C118.407 59.0522 118.006 58.6893 117.676 58.3205C117.298 57.8989 116.955 57.4481 116.613 56.9974C115.894 56.0627 115.216 55.0831 114.443 54.197C114.312 54.0481 114.087 54.2443 114.176 54.4047C114.802 55.5509 115.669 56.5917 116.509 57.5922C117.137 58.3432 117.828 59.4047 118.933 59.4563C119.182 59.4674 119.178 59.1025 118.937 59.0844Z" fill="white"/>
<path d="M116.72 61.6404C115.329 61.0937 114.583 59.5534 113.91 58.3443C113.533 57.6655 113.181 56.9703 112.864 56.2604C112.521 55.5103 112.233 54.726 111.822 54.0139C111.679 53.7686 111.318 53.9508 111.369 54.2027C111.54 55.0435 111.923 55.8301 112.313 56.5907C112.715 57.3766 113.157 58.1465 113.631 58.893C114.377 60.0628 115.19 61.456 116.587 61.9535C116.772 62.0203 116.903 61.7129 116.72 61.6404Z" fill="white"/>
<path d="M61.0741 50.0945C61.1831 50.0449 61.292 49.9954 61.396 49.9282C61.4764 49.8819 61.546 49.8149 61.5912 49.7309C61.6423 49.65 61.6656 49.5579 61.6637 49.4634C61.6481 49.3203 61.6339 49.1817 61.55 49.0578C61.498 48.9774 61.4381 48.9038 61.367 48.8429C61.2235 48.7167 61.0556 48.6259 60.8644 48.5749C60.6849 48.5302 60.4634 48.5114 60.2849 48.5757C60.1122 48.6431 59.9569 48.7199 59.8267 48.8515C59.6887 48.99 59.6114 49.1875 59.6198 49.3753C59.6201 49.4466 59.6523 49.5088 59.6957 49.5585C59.6566 49.6645 59.6325 49.7711 59.6381 49.8789C59.6461 50.1001 59.818 50.2753 60.0506 50.2815C60.1479 50.278 60.2431 50.2846 60.3437 50.2754C60.4786 50.2661 60.6144 50.2423 60.7432 50.211C60.8571 50.1791 60.9639 50.1396 61.0741 50.0945Z" fill="white"/>
<path d="M65.515 52.1444C65.6273 52.0892 65.7263 52.0043 65.8175 51.9265C65.9165 51.8417 65.997 51.7431 66.0588 51.6307C66.0995 51.548 66.1481 51.4583 66.1693 51.3763C66.1939 51.2886 66.199 51.2016 66.2086 51.1133C66.2175 50.9872 66.1941 50.8512 66.1504 50.7303C66.1525 50.7202 66.1604 50.7132 66.1637 50.7076C66.1941 50.5707 66.1886 50.4106 66.1026 50.2968C65.9824 50.1308 65.8539 50.0052 65.6719 49.8994C65.5421 49.8217 65.3886 49.7648 65.2346 49.7414C64.8841 49.6828 64.507 49.7219 64.1971 49.9133C63.9075 50.0896 63.681 50.386 63.6304 50.7139C63.6012 50.9075 63.5988 51.0745 63.6474 51.2654C63.6824 51.4077 63.731 51.5462 63.7966 51.6752C63.8454 51.7613 63.9111 51.838 63.971 51.9115C64.0131 51.9568 64.054 51.9976 64.0995 52.0371C64.1843 52.0942 64.2599 52.1538 64.3547 52.1938C64.4217 52.2226 64.4945 52.2545 64.5682 52.2719C64.6108 52.2837 64.66 52.2841 64.706 52.2903C64.8736 52.3099 64.9915 52.3101 65.1741 52.2779C65.2905 52.2548 65.4073 52.1983 65.515 52.1444Z" fill="white"/>
<path d="M64.6558 52.2854C64.7075 52.295 64.7625 52.2989 64.8188 52.3072C64.7832 52.3027 64.7464 52.2937 64.7062 52.2905C64.6914 52.2899 64.6765 52.2892 64.6558 52.2854Z" fill="white"/>
<path d="M61.5778 55.9765C61.6515 55.9416 61.744 55.8681 61.7854 55.8232C61.8314 55.7771 61.8862 55.7094 61.9194 55.6526C61.9372 55.6286 61.9601 55.5699 61.9808 55.5213C61.9933 55.513 62.0115 55.5079 62.0239 55.4997C62.0939 55.4516 62.1499 55.3883 62.1931 55.3144C62.2703 55.1692 62.309 54.992 62.2542 54.8314C62.204 54.6696 62.1028 54.5363 61.951 54.4505C61.8352 54.3879 61.7036 54.3392 61.5745 54.2993C61.4454 54.2594 61.3089 54.2454 61.1735 54.2358C60.9475 54.2183 60.724 54.2619 60.5074 54.3131C60.4151 54.3342 60.3335 54.3761 60.2671 54.4375C60.1926 54.4869 60.1366 54.5501 60.0946 54.6284C60.0108 54.7851 59.9766 54.961 60.0248 55.1329C60.0396 55.1858 60.059 55.2374 60.0771 55.2846C60.1171 55.3923 60.1571 55.4999 60.2174 55.5924C60.2624 55.6653 60.3198 55.73 60.376 55.7904C60.3913 55.8098 60.4112 55.8281 60.4298 55.8419C60.4881 55.8921 60.5637 55.9517 60.6378 55.988C60.7048 56.0167 60.7718 56.0455 60.8421 56.0686C60.8525 56.0704 60.8686 56.0754 60.8847 56.0804C60.963 56.0965 61.0503 56.1101 61.1314 56.1016C61.3132 56.0839 61.4179 56.0546 61.5778 55.9765Z" fill="white"/>
</svg>
