<svg width="256" height="191" viewBox="0 0 256 191" fill="none" xmlns="http://www.w3.org/2000/svg">
<g clip-path="url(#clip0)">
<path fill-rule="evenodd" clip-rule="evenodd" d="M192.872 123.61C189.48 121.509 186.492 118.612 183.97 115.588C181.319 112.399 179.38 108.88 177.494 105.224C175.685 101.719 173.436 98.1924 169.42 96.8478C169.239 96.7894 169.133 96.6558 169.085 96.5072C165.719 95.8251 162.435 94.7963 159.097 94.0128C156.374 93.3715 153.665 93.0149 150.933 92.9566C149.835 93.0534 148.732 93.1092 147.629 93.047C147.313 93.0699 146.994 93.1029 146.671 93.137C147.325 95.5214 145.287 97.7148 143.7 99.3178C142.759 100.272 141.718 100.69 140.37 100.604C139.155 100.528 137.917 100.278 136.761 99.9311C134.743 99.3346 132.824 98.3778 131.21 97.0611C125.974 98.9168 120.799 101.012 115.475 102.555C116.112 102.565 116.753 102.573 117.393 102.615C120.342 102.803 123.256 103.372 125.971 104.488C128.147 105.38 130.143 106.605 132.169 107.775C132.299 107.729 132.444 107.744 132.563 107.865C132.669 107.975 132.778 108.08 132.882 108.186C132.893 108.188 132.9 108.196 132.905 108.199C134.681 108.588 136.487 108.841 138.308 108.926C139.275 108.97 140.242 108.973 141.206 108.928C141.834 108.902 142.466 108.838 143.096 108.821C143.11 108.742 143.135 108.665 143.179 108.587C143.32 108.354 143.608 108.201 143.884 108.212C143.916 108.204 143.941 108.183 143.968 108.176C144.091 108.141 144.219 108.127 144.345 108.124C144.465 108.117 144.583 108.14 144.694 108.154C144.827 108.177 144.959 108.22 145.07 108.291C145.246 108.407 145.377 108.563 145.433 108.766C145.475 108.911 145.473 109.096 145.416 109.238C145.351 109.386 145.276 109.518 145.149 109.63C145.024 109.737 144.897 109.812 144.738 109.861C144.616 109.897 144.479 109.898 144.355 109.887C144.224 109.873 144.102 109.851 143.982 109.801C143.862 109.751 143.759 109.673 143.65 109.606C143.641 109.609 143.636 109.61 143.626 109.608C143.518 109.588 143.434 109.524 143.365 109.442C143.353 109.436 143.338 109.435 143.326 109.424C143.325 109.419 143.319 109.416 143.318 109.412C142.617 109.555 141.89 109.591 141.186 109.622C140.188 109.671 139.188 109.672 138.185 109.622C137.109 109.572 136.036 109.455 134.966 109.295C137.623 110.623 140.386 111.735 143.22 112.665C145.916 113.553 148.681 114.17 151.447 114.791C151.387 114.475 151.497 114.136 151.726 113.88C151.862 113.723 152.036 113.623 152.227 113.565C152.487 113.377 152.809 113.263 153.134 113.276C153.537 113.288 153.923 113.445 154.262 113.648C154.47 113.775 154.673 113.941 154.781 114.159C154.91 114.42 154.952 114.721 154.847 115.002C154.678 115.436 154.292 115.802 153.805 115.882C153.384 115.955 152.969 115.876 152.563 115.756C152.294 115.673 152.06 115.538 151.851 115.369C148.553 115.113 145.274 114.315 142.156 113.324C139.813 112.583 137.533 111.642 135.327 110.573C135.838 111.053 136.35 111.538 136.879 112.009C137.626 112.671 138.389 113.319 139.151 113.963C139.609 114.348 140.084 114.743 140.505 115.175C140.552 115.149 140.597 115.114 140.653 115.105C140.714 115.094 140.771 115.089 140.833 115.083C140.973 115.095 141.117 115.106 141.249 115.148C141.383 115.195 141.513 115.247 141.635 115.306C141.835 115.402 142.01 115.533 142.18 115.669C142.352 115.81 142.488 115.979 142.619 116.153C142.748 116.333 142.836 116.528 142.917 116.734C142.979 116.903 142.904 117.111 142.792 117.247C142.68 117.384 142.49 117.498 142.3 117.48C141.877 117.43 141.484 117.322 141.107 117.124C140.866 116.996 140.647 116.824 140.443 116.635C140.433 116.633 140.418 116.632 140.402 116.626C140.288 116.58 140.21 116.505 140.141 116.404C140.047 116.263 140.039 116.095 140.065 115.928C139.504 115.578 138.994 115.14 138.505 114.71C137.753 114.05 137.023 113.375 136.299 112.689C135.133 111.585 134.002 110.444 132.875 109.302C130.267 107.853 127.786 106.136 124.965 105.085C120.502 103.419 115.609 103.338 110.821 103.698C107.437 104.403 104.009 104.832 100.533 104.88C95.7119 104.951 90.9157 104.502 86.1306 104.115C81.2802 103.721 76.4043 103.381 71.5302 103.669C66.6653 103.954 61.8289 104.798 57.1294 106.089C47.5882 108.707 38.7853 113.193 30.5324 118.527C30.1714 118.76 29.7375 118.199 30.0826 117.942C31.0076 117.256 31.9382 116.573 32.8927 115.927C34.9787 114.524 37.1294 113.204 39.338 111.978C41.7842 110.107 44.235 108.234 46.6721 106.347C47.2843 105.872 47.9055 105.413 48.5245 104.946C48.4899 104.44 48.6484 103.81 48.6943 103.43C48.8319 102.31 48.9809 101.196 49.2054 100.092C49.4323 98.9775 49.7209 97.8758 50.1192 96.8032C50.3114 96.2875 50.5287 95.7749 50.7689 95.2755C50.9684 94.8665 51.2207 94.4538 51.7205 94.3657C52.688 94.1978 53.075 95.2899 53.1495 96.0122C53.2559 97.1136 52.9904 98.1906 52.5957 99.2198C52.0589 100.634 51.385 102.007 50.6426 103.341C51.9576 102.364 53.2816 101.403 54.6182 100.453C55.3639 98.5892 55.9793 96.6926 56.4141 94.7375C56.8053 92.9775 57.0195 91.1535 58.2515 89.7106C58.4926 89.4281 58.9403 89.6175 59.03 89.9159C59.8828 92.878 58.8429 95.8209 57.4072 98.5093C58.9172 97.4731 60.4363 96.4536 61.9758 95.4572C61.9743 95.3349 61.9979 95.2157 62.0889 95.1314C62.3389 94.8844 62.5776 94.6308 62.8162 94.3772C62.7913 94.3363 62.7594 94.3065 62.7574 94.2598C62.5639 92.0758 63.4247 89.5651 64.3087 87.5726C64.7129 86.659 65.1776 85.7726 65.7165 84.9289C66.1572 84.2374 66.6171 83.3901 67.4004 83.0135C67.993 82.7322 68.7044 82.8647 68.9443 83.5077C69.2089 84.2105 68.8509 85.2494 68.6873 85.9561C68.0588 88.6538 66.7859 91.3296 64.9662 93.5388C70.2523 90.1976 75.5227 86.7943 80.0248 82.4704C80.1861 82.3165 80.4205 82.5502 80.2638 82.7029C77.6047 85.298 74.6578 87.5831 71.5985 89.7125C69.1671 91.41 66.6824 93.0313 64.2091 94.6592C66.2984 93.8313 68.4191 93.0899 70.5848 92.4882C72.6553 91.9152 75.1395 91.106 77.2462 91.8597C77.3868 91.914 77.5197 92.0741 77.4523 92.2327C77.0757 93.1204 76.3435 93.5643 75.4245 93.8475C74.0856 94.2647 72.6529 94.4837 71.2703 94.7467C68.7378 95.2282 66.2007 95.5174 63.6467 95.7778C63.5365 95.8244 63.4229 95.8577 63.3092 95.9099C63.1416 95.9805 62.985 95.9396 62.8664 95.8562C62.7095 95.8721 62.5525 95.888 62.3955 95.9039C62.3761 95.9041 62.3681 95.8919 62.3486 95.8921C60.7894 96.9264 59.2461 97.9851 57.7232 99.067C57.7358 99.0591 57.7485 99.0512 57.7611 99.0433C58.6126 98.5694 59.5298 98.2017 60.4704 97.9461C62.4089 97.411 64.3843 97.3906 66.327 97.8411C66.5957 97.9009 66.6785 98.2105 66.558 98.4296C65.6799 100.038 63.3544 100.024 61.7658 100.263C59.9571 100.539 58.102 100.921 56.2632 101.077C56.0679 101.173 55.875 101.26 55.673 101.329C55.6339 101.349 55.5938 101.364 55.5503 101.365C55.3839 101.421 55.2186 101.482 55.0421 101.517C54.8712 101.555 54.6849 101.493 54.5642 101.382C54.5263 101.406 54.4941 101.433 54.4607 101.455C53.2261 102.403 52.0119 103.374 50.7943 104.351C51.0285 104.254 51.2684 104.161 51.5004 104.055C52.1837 103.746 52.8602 103.411 53.5796 103.187C54.837 102.795 56.1934 102.7 57.3909 103.29C57.7094 103.451 57.7186 103.991 57.3718 104.145C56.0754 104.712 54.7327 105.191 53.3452 105.493C51.9761 105.791 50.5137 106.008 49.119 105.816C49.0778 105.807 49.0447 105.792 49.0082 105.782C47.4729 107.009 45.9274 108.233 44.3558 109.412C49.2908 107.08 54.4418 105.198 59.7321 103.909C64.5167 102.743 69.4253 102.07 74.3417 101.97C79.2181 101.866 84.0738 102.32 88.9184 102.729C89.7561 102.801 90.5962 102.864 91.4363 102.926C91.4814 102.853 91.5482 102.789 91.6469 102.755C94.0775 101.907 96.277 100.49 98.0382 98.6497C98.9223 97.7239 99.6433 96.6928 100.307 95.6099C100.763 94.8627 101.229 93.9618 101.878 93.3029C101.843 93.2788 101.8 93.2658 101.769 93.2361C101.53 93.0458 101.427 92.7509 101.408 92.463C101.386 92.1239 101.554 91.8031 101.812 91.5872C101.812 91.5872 101.811 91.5827 101.816 91.5816C101.929 91.4493 102.075 91.3701 102.236 91.3152C102.236 91.3152 102.236 91.3152 102.241 91.314C102.512 91.1892 102.816 91.1552 103.108 91.2326C103.376 91.3069 103.625 91.4848 103.759 91.725C103.905 91.9951 103.91 92.2864 103.843 92.5818C103.788 92.8271 103.633 93.0832 103.433 93.2419C103.246 93.3882 103.026 93.4626 102.796 93.5014C102.479 94.0059 102.068 94.4636 101.736 94.9672C101.369 95.5267 101.033 96.1071 100.667 96.6711C100.001 97.7073 99.2198 98.6733 98.3372 99.5468C97.488 100.379 96.5445 101.107 95.5397 101.747C96.2476 101.517 96.9578 101.296 97.6635 101.057C99.8737 100.302 102.037 99.3994 104.117 98.3424C108.307 96.2071 112.181 93.5186 115.636 90.3644C115.524 90.2086 115.423 90.0405 115.352 89.8553C115.059 89.0983 115.247 88.3146 115.284 87.5312C115.321 86.7666 115.107 86.2069 114.316 85.9527C113.949 85.8326 113.558 85.7895 113.182 85.7095C112.356 85.5303 111.561 85.2205 110.839 84.7934C109.353 83.9071 108.12 82.4802 107.662 80.8159C106.631 77.0867 110.763 75.3813 113.858 75.136C114.48 75.088 115.091 75.0946 115.705 75.129C112.899 73.711 110.539 71.3689 110.106 68.2917C109.886 66.7186 110.235 64.8889 111.529 63.7892C112.216 63.2055 113.036 63.0322 113.915 62.9763C115.038 62.9059 115.832 62.8052 116.606 61.926C117.641 60.7452 118.406 59.3677 120.229 59.5556C121.242 59.6643 122.335 60.3238 123.367 60.0073C124.383 59.6999 124.514 58.2649 124.921 57.4591C125.725 55.8833 127.133 54.7736 128.973 54.6788C130.817 54.5829 132.762 55.3537 134.277 56.2941C137.207 58.1104 139.097 61.5101 138.019 64.9016C138.777 64.0971 139.653 63.4094 140.687 62.9605C141.94 62.4184 143.655 62.1001 144.79 63.0229C145.858 63.8918 145.924 65.414 146.176 66.6487C146.35 67.5158 146.604 68.4289 147.362 68.9793C148.035 69.4614 148.875 69.6606 149.579 70.0924C151.146 71.0479 151.269 72.7776 151.976 74.285C152.728 75.8799 154.024 77.3663 153.529 79.2563C153.344 79.9733 152.93 80.5967 152.395 81.1088C153.89 83.5979 151.91 86.7584 148.937 87.0394C147.902 87.1346 146.829 86.9798 145.777 86.7347C146.436 87.4751 146.988 88.3699 146.712 89.3835C146.543 89.9924 145.797 90.3408 145.718 90.8988C145.662 91.2809 145.922 91.6923 146.183 92.0892C146.897 92.0181 147.613 91.9559 148.335 91.9159C149.254 91.8685 150.165 91.8802 151.067 91.9175C152.804 91.6691 154.548 91.4661 156.281 91.181C159.144 90.7109 161.982 90.0864 164.765 89.2632C170.441 87.5892 175.874 84.9475 180.531 81.3352C180.579 81.2947 180.632 81.2909 180.686 81.2915C180.251 80.8817 179.99 80.2912 180.009 79.7059C180.033 78.8547 180.663 78.196 181.468 77.9272C182.143 77.7008 182.932 77.7947 183.551 78.1394C183.56 78.1371 183.568 78.1304 183.577 78.1281C183.966 78.0822 184.287 78.2328 184.437 78.5962C184.554 78.8877 184.527 79.2061 184.441 79.5061C184.294 80.0436 183.938 80.5297 183.56 80.9458C183.211 81.3261 182.754 81.6584 182.226 81.7534C181.801 81.8274 181.373 81.7746 181.005 81.5511C180.987 81.5412 180.974 81.5258 180.957 81.5159C180.955 81.5682 180.935 81.6251 180.874 81.6735C176.245 85.3356 170.941 87.9072 165.337 89.7941C162.454 90.7605 159.499 91.523 156.516 92.1132C156.111 92.1915 155.705 92.2653 155.3 92.3391C157.573 92.7064 159.818 93.2553 162.071 93.8731C164.628 94.5748 167.196 95.2976 169.799 95.8132C171.718 95.9012 173.638 95.9136 175.563 95.8637C175.658 95.6792 175.842 95.5385 176.12 95.5393C184.04 95.59 190.876 90.8107 197.693 87.4244C200.607 85.9782 203.773 84.4875 207.016 83.9404C209.136 83.5817 212.327 83.9539 212.419 86.6261C212.512 89.4016 209.308 90.6847 207.287 91.859C206.588 92.2614 205.962 92.7399 205.53 93.3301C207.068 95.3505 208.722 98.0261 207.047 100.482C206.78 100.875 206.551 101.187 206.531 101.669C206.522 101.983 206.571 102.292 206.576 102.602C206.583 103.233 206.522 103.881 206.248 104.459C205.775 105.466 204.536 105.721 204.05 106.679C204.038 106.705 204.015 106.711 204 106.729C204.178 106.816 204.361 106.903 204.539 106.99C206.181 107.78 208.002 108.578 209.075 110.092C209.982 111.369 209.942 113.051 208.937 114.29C208.828 114.421 208.696 114.535 208.575 114.655C208.812 114.628 209.071 114.572 209.302 114.481C209.843 114.265 210.307 113.86 210.609 113.374C210.643 113.318 210.688 113.283 210.735 113.257C210.641 113.096 210.645 112.897 210.844 112.739C211.511 112.193 212.205 111.749 212.552 110.94C212.912 110.103 212.74 109.34 212.469 108.516C212.035 107.218 211.727 105.431 213.286 104.666C213.971 104.328 214.768 104.392 215.471 104.083C216.129 103.79 216.701 103.311 217.104 102.723C217.993 101.447 217.748 100.05 217.575 98.6254C217.431 97.4721 217.369 96.2369 218.096 95.228C218.97 94.0119 220.602 93.7522 221.596 92.6808C223.351 90.7948 222.708 87.6194 220.92 86.0396C218.654 84.0326 215.217 84.0008 212.39 84.7687C211.81 84.9242 211.597 84.0574 212.171 83.8986C215.389 82.9992 219.504 83.0871 221.86 85.6661C223.49 87.4509 224.025 90.2947 222.838 92.4769C222.089 93.8453 220.717 94.2851 219.543 95.2035C218.08 96.346 218.698 98.1257 218.9 99.6466C219.095 101.137 218.873 102.523 217.876 103.737C217.395 104.326 216.784 104.824 216.085 105.146C215.762 105.298 215.422 105.422 215.071 105.501C214.665 105.593 214.184 105.582 213.82 105.801C212.982 106.31 213.484 107.51 213.712 108.203C213.962 108.942 214.127 109.656 214.002 110.438C213.792 111.756 212.782 113.365 211.313 113.555C211.289 113.556 211.268 113.552 211.244 113.554C211.243 113.606 211.232 113.66 211.202 113.715C210.835 114.35 210.266 114.824 209.602 115.152C209.267 115.311 208.903 115.436 208.538 115.495C208.209 115.545 207.846 115.617 207.539 115.501C206.951 115.88 206.317 116.191 205.67 116.467C206.349 117.788 206.225 119.447 205.045 120.537C204.444 121.094 203.647 121.437 202.829 121.52C202.378 121.567 201.917 121.537 201.48 121.411C201.113 121.31 200.417 120.791 200.043 120.975C199.495 121.24 199.411 122.418 199.168 122.904C198.859 123.52 198.349 123.992 197.715 124.284C196.063 125.045 194.316 124.502 192.872 123.61ZM63.5623 93.5428C65.7401 91.0122 67.3236 88.1166 67.941 84.8128C67.9742 84.6345 68.137 84.2348 68.0556 84.0665C67.8421 83.6057 67.5354 83.9378 67.3245 84.1466C66.9535 84.5138 66.6652 85.0159 66.3854 85.4545C65.8025 86.3753 65.3005 87.3466 64.8889 88.347C64.4924 89.3106 64.1758 90.3013 63.9473 91.3123C63.7767 92.0491 63.6826 92.7997 63.5623 93.5428ZM66.2329 94.7729C67.5803 94.6415 68.9258 94.4634 70.2565 94.2654C71.5504 94.0767 72.8332 93.8435 74.1152 93.5681C74.9579 93.3891 76.2416 93.1982 76.7162 92.3896C74.5884 92.0565 72.5312 92.7017 70.488 93.3245C69.0516 93.7615 67.6389 94.2539 66.2329 94.7729ZM56.129 99.1094C57.5551 96.6547 58.7122 94.0223 58.3267 91.2305C57.6717 92.5046 57.5269 94.0421 57.2081 95.3921C56.914 96.6462 56.542 97.8821 56.129 99.1094ZM60.9817 99.4931C61.9088 99.3778 62.8472 99.288 63.7734 99.1304C64.3477 99.0283 64.9498 98.8815 65.3986 98.5326C63.704 98.3313 61.9465 98.4809 60.3206 98.9986C59.7114 99.1944 59.1395 99.4611 58.5845 99.7565C59.3866 99.6679 60.191 99.5882 60.9817 99.4931ZM49.61 103.483C50.2387 102.395 50.833 101.287 51.3338 100.137C51.6812 99.3461 52.016 98.5444 52.2102 97.7072C52.2997 97.307 52.3538 96.9016 52.3438 96.4935C52.3421 96.2154 52.3295 95.487 52.003 95.3331C51.8032 95.2371 51.763 95.4265 51.6692 95.5965C51.5579 95.8133 51.4592 96.0411 51.3593 96.2645C51.2035 96.6341 51.058 97.0059 50.9275 97.3786C50.6476 98.1854 50.4214 99.0117 50.2363 99.8466C50.0455 100.697 49.8969 101.561 49.7621 102.42C49.7049 102.775 49.6581 103.131 49.61 103.483ZM145.435 92.4899C145.366 92.3514 145.263 92.2734 145.147 92.2177C145.165 92.2131 145.185 92.2129 145.203 92.2083C144.837 91.5877 144.49 90.9057 144.946 90.2385C145.365 89.614 146.119 89.528 146.117 88.6271C146.117 87.7961 145.471 87.1469 144.933 86.579C144.912 86.5558 144.922 86.5346 144.911 86.5135C144.356 86.3607 143.811 86.1911 143.288 86.0346C142.37 85.756 141.461 85.4418 140.57 85.0807C139.708 84.736 138.863 84.3823 138.212 83.7153C137.965 83.4706 138.231 83.13 138.545 83.1783C140.062 83.4291 141.466 84.3361 142.888 84.8703C144.309 85.4001 145.784 85.8693 147.276 86.1592C148.86 86.4639 150.517 86.264 151.64 85.009C152.565 83.9738 152.694 82.5299 152.098 81.3629C151.605 81.7657 151.032 82.0891 150.433 82.3059C148.596 82.9713 146.497 82.8716 144.591 82.7C142.603 82.5158 140.66 82.141 138.838 81.3391C138.542 81.2061 138.781 80.8012 139.059 80.8588C141.088 81.2639 143.115 81.7024 145.193 81.8168C147.083 81.9218 149.317 82.0014 150.998 80.9837C152.644 79.9842 152.971 78.3771 152.221 76.7344C151.871 75.9634 151.417 75.2424 151.101 74.4533C150.829 73.7806 150.676 73.0734 150.427 72.3949C150.112 71.5302 149.625 70.9351 148.802 70.4955C148.206 70.1784 147.57 69.9228 147.041 69.5039C146.113 68.7649 145.788 67.6856 145.586 66.5751C145.354 65.3025 145.264 63.5313 143.768 63.0534C142.078 62.5206 140.085 63.6123 138.869 64.6925C137.572 65.8401 136.668 67.3278 135.872 68.8168C135.029 70.3885 134.224 71.9788 133.402 73.5592C133.282 73.7973 132.921 73.5859 133.043 73.3523C134.134 71.251 135.148 69.0793 136.391 67.0579C136.74 66.4885 137.128 65.9376 137.559 65.4186C137.349 65.4005 137.157 65.2366 137.245 64.9877C138.697 60.9877 135.635 57.3684 131.968 55.9972C130.18 55.3285 127.983 55.0083 126.501 56.5236C125.849 57.1925 125.462 58.017 125.155 58.873C124.937 59.4801 124.7 60.0874 124.125 60.4587C122.63 61.4201 121.111 60.1126 119.575 60.367C118.162 60.6047 117.577 62.2764 116.526 63.0602C115.157 64.075 113.236 63.3408 111.985 64.5569C110.662 65.8483 110.74 67.9622 111.339 69.5295C112.564 72.7285 115.632 74.123 118.538 75.5724C120.528 76.0958 122.391 77.0242 123.978 78.3288C124.162 78.4762 123.904 78.7911 123.717 78.6494C120.797 76.4437 116.911 75.4249 113.207 76.0029C111.785 76.224 110.239 76.6887 109.237 77.7669C107.902 79.2074 108.538 81.176 109.637 82.5185C110.654 83.7684 112.062 84.5752 113.663 84.9276C114.932 85.2029 116.054 85.6665 116.117 87.0997C116.151 87.8747 115.854 88.7095 116.102 89.4636C116.319 90.1312 116.958 90.518 117.551 90.8407C118.174 91.1843 118.831 91.4674 119.393 91.8972C120.023 92.3853 120.426 93.0768 121.038 93.5695C122.267 94.5582 124.176 94.564 125.517 93.7263C126.996 92.8017 127.607 91.2744 128.048 89.7142C128.125 89.4354 128.496 89.5354 128.519 89.7799C128.862 93.5076 124.24 96.5824 120.922 94.486C120.07 93.9499 119.604 93.0476 118.795 92.4678C118.163 92.0131 117.416 91.7385 116.755 91.3386C116.577 91.2323 116.41 91.1137 116.252 90.9884C112.752 94.1963 108.814 96.9433 104.568 99.1258C102.455 100.21 100.278 101.173 98.0447 101.99C96.9234 102.4 95.799 102.758 94.6361 103.041C94.5443 103.064 94.4445 103.094 94.3482 103.119C97.4273 103.297 100.513 103.384 103.598 103.198C108.736 102.896 113.743 101.664 118.632 100.099C122.464 98.8657 126.281 97.4234 130.13 96.0866C129.143 95.0134 127.114 92.4936 128.447 92.0353C128.543 92.2235 128.659 92.3927 128.771 92.5674C128.787 92.9221 129.505 93.95 129.615 94.1158C129.973 94.6487 130.387 95.1488 130.843 95.6051C130.902 95.6657 130.978 95.7129 131.041 95.7723C131.092 95.7596 131.141 95.7425 131.191 95.7254C131.651 96.2562 132.126 96.769 132.627 97.2661C132.842 97.481 133.087 97.5233 133.315 97.48C133.453 97.5633 133.575 97.6601 133.717 97.7377C134.795 98.3396 135.935 98.7986 137.122 99.1558C138.385 99.5413 139.827 99.9808 141.168 99.8606C142.738 99.7205 143.971 98.0884 144.815 96.9083C145.337 96.1726 145.754 95.3078 145.835 94.4283C146.023 94.2253 146.099 93.9276 145.934 93.601C145.754 93.2355 145.615 92.8553 145.435 92.4899ZM205.177 93.9429C205.017 94.3137 204.918 94.7162 204.916 95.1745C204.917 96.477 205.468 97.7167 205.431 99.024C205.396 100.279 204.759 101.374 203.62 102.001C202.292 102.736 200.571 102.721 199.388 103.717C199.162 103.906 198.968 104.12 198.783 104.337C200.399 104.982 201.961 105.741 203.523 106.5C203.347 105.529 204.572 105.183 205.151 104.636C206.199 103.645 205.474 102.256 205.808 101.082C205.992 100.436 206.547 99.966 206.767 99.3299C206.983 98.695 206.995 98.0074 206.881 97.3611C206.653 96.0873 205.932 94.9849 205.177 93.9429ZM192.795 102.138C189.842 101.994 186.923 101.152 184.096 100.386C181.96 99.8093 179.864 99.0766 178.049 97.8531C179.921 99.827 181.953 101.6 184.303 103.09C185.747 104.001 187.259 104.796 188.832 105.481C190.436 106.177 192.222 106.762 194.02 106.578C195.886 106.392 196.72 105.191 197.732 103.822C198.556 102.699 199.523 102.064 200.872 101.649C202.105 101.273 203.733 101 204.149 99.6065C204.496 98.4475 204.054 97.1379 203.957 95.9775C203.864 94.8682 203.952 93.7651 204.629 92.8111C205.358 91.7922 206.481 91.1367 207.579 90.5582C208.762 89.93 209.981 89.3826 210.835 88.318C211.681 87.2602 211.807 85.7652 210.466 85.0689C209.365 84.4917 207.917 84.653 206.74 84.9352C205.175 85.31 203.647 85.8646 202.174 86.4855C199.185 87.7522 196.358 89.351 193.528 90.9176C189.324 93.2499 184.939 95.5383 180.211 96.426C185.827 96.8349 191.455 96.1547 196.996 94.9113C197.245 94.8534 197.421 95.2245 197.17 95.3302C191.537 97.659 185.329 98.23 179.3 97.6513C180.968 98.5581 182.846 99.0815 184.709 99.5282C187.435 100.183 190.256 100.653 192.875 101.66C193.123 101.753 193.096 102.152 192.795 102.138ZM196.481 123.509C197.388 123.39 198.013 122.869 198.3 122.032C198.492 121.478 198.619 120.88 199.004 120.41C200.076 119.107 201.376 120.493 202.645 120.4C204.551 120.26 205.509 118.056 204.353 116.624C204.048 116.243 204.197 115.809 204.649 115.629C205.825 115.163 207.151 114.541 207.935 113.527C208.919 112.26 208.389 110.873 207.296 109.902C206.042 108.778 204.361 108.125 202.855 107.376C201.306 106.609 199.756 105.857 198.271 104.975C197.706 105.736 197.175 106.516 196.277 107.016C194.95 107.751 193.373 107.785 191.921 107.522C188.695 106.932 185.557 105.163 182.872 103.413C182.521 103.18 182.179 102.926 181.83 102.684C183.264 104.041 184.677 105.427 186.205 106.695C190.286 110.077 194.933 112.513 199.676 114.902C199.961 115.048 199.75 115.488 199.451 115.403C194.465 113.929 189.942 111.036 186.002 107.803C183.892 106.069 182.018 104.109 180.029 102.254C179.119 101.407 178.161 100.624 177.168 99.8778C179.318 101.89 181.185 104.191 183.083 106.423C186.158 110.034 189.359 113.605 192.13 117.443C192.332 117.723 191.871 118.042 191.64 117.803C188.38 114.465 185.471 110.774 182.497 107.194C180.068 104.269 177.701 101.164 174.666 98.794C175.703 99.8546 176.584 101.087 177.34 102.346C179.362 104.834 181.282 107.405 182.988 110.115C183.103 110.298 182.813 110.447 182.688 110.28C181.42 108.574 180.148 106.874 178.865 105.186C179.451 106.351 180.032 107.517 180.682 108.646C181.596 110.243 182.621 111.779 183.737 113.245C185.996 116.212 188.662 118.859 191.608 121.186C192.918 122.22 194.629 123.749 196.481 123.509Z" fill="white"/>
<path d="M181.837 80.7703C181.818 80.7705 181.794 80.7718 181.774 80.772C181.76 80.771 181.692 80.7549 181.679 80.7628C181.717 80.7391 181.787 80.783 181.684 80.7617C181.658 80.7541 181.627 80.7477 181.595 80.7369C181.583 80.7303 181.569 80.7294 181.557 80.7228C181.539 80.7085 181.433 80.655 181.417 80.6496C181.41 80.6418 181.37 80.6189 181.357 80.6078C181.352 80.6046 181.363 80.6111 181.351 80.6001C181.302 80.5605 181.256 80.5153 181.215 80.469C181.195 80.4458 181.173 80.4182 181.153 80.395C181.237 80.4966 181.149 80.3817 181.133 80.3574C181.103 80.3132 181.077 80.2678 181.054 80.2169C181.037 80.1881 181.025 80.1582 181.012 80.1283C181.067 80.2468 181.023 80.1493 181.011 80.1238C180.99 80.0584 180.974 79.9962 180.959 79.9341C180.955 79.9019 180.948 79.8708 180.944 79.8386C180.943 79.8341 180.943 79.8341 180.943 79.8341C180.942 79.8297 180.943 79.8341 180.942 79.8297C180.94 79.7641 180.935 79.704 180.942 79.6361C180.945 79.6072 180.946 79.5738 180.947 79.5404C180.952 79.5393 180.947 79.5404 180.952 79.5393C180.951 79.5348 180.952 79.5393 180.954 79.5292C180.973 79.4679 180.987 79.4077 181.01 79.3452C181.027 79.3128 181.047 79.2792 181.064 79.2468C181.085 79.2132 181.111 79.183 181.132 79.1494C181.139 79.1382 181.139 79.1382 181.138 79.1338C181.147 79.1315 181.142 79.1326 181.154 79.1203C181.209 79.0686 181.259 79.0136 181.319 78.9608C181.331 78.9529 181.43 78.8808 181.347 78.9394C181.368 78.9248 181.389 78.9101 181.411 78.8999C181.485 78.848 181.565 78.8139 181.646 78.7698C181.66 78.7663 181.655 78.7675 181.659 78.7619C181.668 78.7596 181.663 78.7607 181.677 78.7573C181.726 78.7401 181.777 78.7274 181.826 78.7103C181.9 78.6918 181.978 78.6722 182.053 78.6626C182.062 78.6603 182.115 78.6565 182.124 78.6542C182.167 78.6482 182.21 78.6467 182.249 78.6463C182.341 78.6422 182.435 78.6469 182.525 78.6572C182.534 78.6549 182.586 78.6655 182.6 78.662C182.636 78.6717 182.672 78.677 182.708 78.6866C182.79 78.7037 182.874 78.7251 182.955 78.7567C182.96 78.7555 183.08 78.8056 183.002 78.7685C183.046 78.7903 183.097 78.8154 183.141 78.8373C183.22 78.8788 183.291 78.9271 183.361 78.9754C183.364 78.9843 183.362 78.9798 183.365 78.9887C183.361 79.0321 183.361 79.0699 183.362 79.1122C183.359 79.1222 183.362 79.1122 183.359 79.1222C183.352 79.1713 183.34 79.2214 183.327 79.2671C183.313 79.3084 183.295 79.3509 183.282 79.3966C183.278 79.4022 183.26 79.4446 183.251 79.4658C183.219 79.5351 183.182 79.6011 183.141 79.6682C183.099 79.7353 183.057 79.8024 183.01 79.8663C182.981 79.9066 182.952 79.9469 182.923 79.9872C182.916 79.9984 182.868 80.0578 182.851 80.0858C182.722 80.236 182.584 80.3652 182.443 80.5C182.433 80.5023 182.426 80.5135 182.414 80.5214C182.385 80.5428 182.352 80.5653 182.323 80.5867C182.28 80.6116 182.238 80.6365 182.195 80.6613C182.183 80.6692 182.099 80.7045 182.082 80.7135C182.009 80.7364 181.926 80.7717 181.852 80.7713C181.848 80.7724 181.847 80.768 181.837 80.7703Z" fill="white"/>
<path d="M136.803 81.7994C136.917 81.5536 136.983 81.2916 136.988 81.0213C136.995 80.8355 136.932 80.6436 136.949 80.4599C136.967 80.2996 137.03 80.1421 137.058 79.9839C137.231 79.0201 136.669 78.0665 135.792 77.6641C135.908 76.8654 135.154 76.215 134.425 75.8791C134.127 75.7417 133.817 75.6121 133.575 75.3897C133.383 75.2068 133.247 74.9767 133.034 74.8084C132.648 74.495 132.171 74.4404 131.681 74.5305C131.42 74.5774 131.178 74.662 130.933 74.7566C130.817 74.7999 130.617 74.9352 130.497 74.923C130.338 74.9111 130.344 74.8009 130.271 74.6636C130.262 74.647 130.249 74.636 130.235 74.6206C130.35 74.3793 130.352 74.0767 130.389 73.8172C130.454 73.3761 130.509 72.9373 130.55 72.4975C130.644 71.5156 130.68 70.5342 130.673 69.5542C130.658 67.6745 130.441 65.8033 130.038 63.9694C130.018 63.8895 129.895 63.9251 129.909 64.0017C130.237 65.8641 130.375 67.7505 130.304 69.6422C130.27 70.5335 130.181 71.4197 130.052 72.3019C129.981 72.7775 129.897 73.2566 129.802 73.7336C129.775 73.8584 129.738 73.9811 129.706 74.1071C129.603 74.048 129.508 73.9777 129.374 73.95C128.278 73.7064 127.49 74.5846 126.886 75.3455C126.758 75.5146 127.047 75.7344 127.182 75.573C127.705 74.9553 128.71 73.8526 129.593 74.5508C129.63 74.5794 129.65 74.6215 129.68 74.6613C129.694 74.719 129.705 74.7823 129.739 74.8398C129.757 74.873 129.792 74.8738 129.816 74.8914C129.9 75.092 129.964 75.3072 130.155 75.4433C130.44 75.6454 130.762 75.5312 131.076 75.4427C131.441 75.3414 131.866 75.1495 132.249 75.2372C132.684 75.3356 132.917 75.8573 133.255 76.1123C133.672 76.4322 135.33 76.9731 134.882 77.7136C134.741 77.9474 134.856 78.2678 135.132 78.3398C135.982 78.5555 136.271 79.3182 136.086 80.0919C135.987 80.4943 136.12 80.9091 135.998 81.294C135.875 81.6789 135.502 81.9993 135.204 82.2679C135.005 82.4455 135.143 82.8024 135.415 82.7955C136.084 82.7782 136.536 82.3858 136.803 81.7994Z" fill="white"/>
<path d="M130.42 83.6134C130.047 83.2731 129.612 83.019 129.229 82.6955C128.821 82.3544 128.471 81.9517 128.171 81.5173C127.868 81.0695 127.599 80.5993 127.369 80.1142C127.134 79.6069 126.751 78.9953 126.816 78.4218C126.868 77.9697 126.151 77.9663 126.092 78.4107C126.014 79.0721 126.389 79.7283 126.648 80.3099C126.901 80.8693 127.154 81.4287 127.471 81.9531C128.033 82.8878 128.964 84.1262 130.218 84.0513C130.435 84.0393 130.598 83.7764 130.42 83.6134Z" fill="white"/>
<path d="M133.112 79.1314C133.109 78.83 133.03 78.5715 132.825 78.3398C132.641 78.1313 132.38 77.9657 132.122 77.8513C131.661 77.6508 131.093 77.5626 130.601 77.7385C130.172 77.2752 129.44 77.1195 128.866 77.4574C128.569 77.6314 128.829 78.0851 129.133 77.9144C129.507 77.6973 130.032 77.806 130.26 78.1687L130.243 78.1022C130.273 78.2787 130.412 78.3854 130.6 78.3569C131.017 78.2897 131.418 78.2738 131.801 78.456C131.995 78.5488 132.151 78.6653 132.295 78.813C132.451 78.9673 132.623 79.1081 132.765 79.2659C132.88 79.3927 133.115 79.296 133.112 79.1314Z" fill="white"/>
<path d="M133.112 83.3184C133.263 83.238 133.335 83.0783 133.364 82.9245C133.418 82.6326 133.352 82.3518 133.295 82.0686C133.207 81.6423 133.115 80.9668 132.54 80.9465C132.427 80.9465 132.329 81.0419 132.323 81.1521C132.318 81.2667 132.417 81.3503 132.527 81.3605C132.536 81.3582 132.562 81.3657 132.574 81.3723C132.591 81.3821 132.603 81.3931 132.631 81.424C132.616 81.4041 132.64 81.4406 132.646 81.4483C132.655 81.4649 132.665 81.4816 132.674 81.4982C132.695 81.5447 132.692 81.5314 132.705 81.5846C132.757 81.751 132.744 81.9335 132.745 82.1315C132.744 82.245 132.749 82.3617 132.748 82.4708C132.744 82.5142 132.74 82.5576 132.736 82.601C132.732 82.6589 132.748 82.5698 132.738 82.6055C132.728 82.6267 132.729 82.65 132.725 82.6701C132.715 82.6913 132.709 82.7069 132.705 82.727C132.697 82.7527 132.669 82.7974 132.709 82.7259C132.675 82.7818 132.643 82.8321 132.624 82.889C132.602 82.9371 132.6 82.9894 132.602 83.0361C132.533 83.1479 132.574 83.2744 132.694 83.3244C132.726 83.3353 132.751 83.3384 132.782 83.3448C132.797 83.3457 132.813 83.3512 132.828 83.3521C132.854 83.3597 132.885 83.3661 132.919 83.3669C132.987 83.364 133.051 83.3479 133.112 83.3184Z" fill="white"/>
<path d="M130.873 81.0304C130.863 80.991 130.863 81.0143 130.873 81.0304V81.0304Z" fill="white"/>
<path d="M131.401 81.7144C131.454 81.635 131.48 81.5057 131.487 81.4144C131.494 81.2709 131.469 81.112 131.425 80.9767C131.331 80.6795 131.125 80.4055 130.83 80.277C130.714 80.2258 130.557 80.2417 130.486 80.3636C130.426 80.4776 130.447 80.6376 130.57 80.7009C130.598 80.7129 130.626 80.7293 130.65 80.7469C130.656 80.7502 130.672 80.7556 130.679 80.7633C130.68 80.7678 130.679 80.7633 130.68 80.7678C130.704 80.7854 130.729 80.8074 130.748 80.8261C130.756 80.8383 130.769 80.8493 130.776 80.857C130.778 80.8659 130.776 80.857 130.777 80.8614C130.795 80.8757 130.857 80.9875 130.861 81.0008C130.867 81.0086 130.868 81.0319 130.88 81.0385C130.875 81.0396 130.874 81.0352 130.873 81.0308C130.884 81.0562 130.892 81.0873 130.899 81.1139C130.905 81.1406 130.913 81.1717 130.915 81.1994L130.917 81.2039C130.914 81.195 130.92 81.2172 130.918 81.2272C130.915 81.2562 130.913 81.2851 130.911 81.3185C130.908 81.3619 130.907 81.3197 130.916 81.2984C130.909 81.3096 130.909 81.3285 130.908 81.343C130.903 81.3631 130.899 81.3876 130.896 81.4121C130.893 81.4221 130.89 81.4277 130.891 81.4321C130.883 81.4767 130.864 81.5192 130.862 81.567C130.86 81.6382 130.886 81.7025 130.898 81.7702C130.902 81.8258 130.954 81.8743 131.003 81.895C131.067 81.9166 131.114 81.9095 131.176 81.8845C131.264 81.8481 131.349 81.7983 131.401 81.7144Z" fill="white"/>
<path d="M129.751 76.6307L129.745 76.6273C129.74 76.6285 129.74 76.6285 129.74 76.6285C129.779 76.6237 129.783 76.6225 129.751 76.6307Z" fill="white"/>
<path d="M130.6 76.8841C130.742 76.8862 130.864 76.7705 130.873 76.6314C130.881 76.3321 130.473 76.1656 130.224 76.1056C130.1 76.0801 129.969 76.0612 129.839 76.0702C129.791 76.0729 129.74 76.0811 129.688 76.0894C129.64 76.0164 129.588 75.9446 129.505 75.9042C129.297 75.796 129.035 75.8006 128.859 75.9724C128.765 76.0667 128.753 76.2304 128.855 76.3273C128.95 76.4121 129.103 76.4207 129.207 76.3285C129.202 76.3297 129.199 76.3353 129.199 76.3353C129.199 76.3353 129.207 76.3285 129.211 76.3274C129.217 76.3307 129.211 76.3274 129.217 76.3307C129.222 76.3295 129.227 76.3328 129.238 76.3349C129.243 76.3382 129.249 76.3415 129.256 76.3492C129.261 76.3525 129.267 76.3558 129.268 76.3602C129.274 76.3635 129.274 76.3635 129.275 76.368C129.253 76.5339 129.397 76.715 129.585 76.6488C129.599 76.6453 129.612 76.6418 129.626 76.6384C129.581 76.6354 129.533 76.6381 129.489 76.6352C129.573 76.6611 129.657 76.6448 129.745 76.6273C129.756 76.6294 129.769 76.6259 129.779 76.6236C129.808 76.6256 129.837 76.6231 129.861 76.6218C129.891 76.6237 129.92 76.6257 129.946 76.6288C129.961 76.6297 129.975 76.6307 129.99 76.6317C129.95 76.6276 129.945 76.6243 129.975 76.6307C130.033 76.6446 130.084 76.6553 130.138 76.6748C130.148 76.677 130.158 76.6791 130.17 76.6857C130.19 76.6899 130.22 76.7108 130.237 76.7206C130.259 76.7293 130.276 76.7392 130.293 76.749C130.306 76.76 130.385 76.806 130.316 76.7622C130.374 76.7995 130.409 76.8425 130.478 76.863C130.516 76.8771 130.56 76.8801 130.6 76.8841Z" fill="white"/>
<path d="M134.741 82.1531C134.749 82.1464 134.756 82.1541 134.76 82.153L134.768 82.1462C135.006 82.0817 135.123 81.8682 135.144 81.6222C135.156 81.4396 135.094 81.29 135.034 81.126C135.021 81.096 134.998 81.0406 134.993 81.0229C134.982 80.9974 134.97 80.9719 134.955 80.9476C134.946 80.931 134.932 80.9156 134.917 80.8957C135.044 80.7599 135.138 80.59 135.156 80.4107C135.195 79.9665 134.802 79.5652 134.346 79.5572C134.161 79.5567 133.98 79.7107 133.983 79.8987C133.987 80.0866 134.127 80.2355 134.323 80.2426C134.334 80.2447 134.328 80.2415 134.334 80.2447C134.338 80.2436 134.334 80.2447 134.344 80.2469C134.398 80.2664 134.31 80.2461 134.344 80.2469C134.354 80.249 134.355 80.2534 134.361 80.2567C134.379 80.271 134.393 80.2865 134.411 80.3008C134.361 80.2567 134.399 80.2897 134.416 80.3185C134.42 80.3174 134.415 80.3141 134.416 80.3185C134.421 80.3218 134.419 80.3318 134.42 80.3363C134.422 80.3451 134.424 80.3496 134.42 80.3552C134.421 80.3596 134.421 80.3596 134.418 80.3652C134.414 80.3708 134.41 80.372 134.402 80.3787C134.397 80.3799 134.401 80.3743 134.392 80.381C134.389 80.3866 134.394 80.3855 134.389 80.3866C134.38 80.3889 134.371 80.3912 134.357 80.3947C134.352 80.3958 134.361 80.3935 134.347 80.3926C134.342 80.3937 134.347 80.3926 134.342 80.3937C134.137 80.3556 133.933 80.4353 133.845 80.6274C133.76 80.814 133.826 81.0381 134.009 81.1432C134.014 81.1465 134.055 81.1739 134.073 81.1837C134.109 81.2123 134.137 81.2477 134.17 81.2818C134.17 81.2818 134.17 81.2818 134.172 81.2863C134.186 81.3062 134.195 81.3228 134.21 81.3427C134.22 81.3637 134.232 81.3892 134.242 81.4102C134.242 81.4102 134.242 81.4102 134.243 81.4147C134.248 81.4369 134.254 81.459 134.26 81.4812C134.257 81.4913 134.257 81.4913 134.258 81.4957C134.265 81.5413 134.271 81.6246 134.278 81.6702C134.276 81.6802 134.278 81.6891 134.279 81.6935C134.282 81.7447 134.285 81.7958 134.297 81.8446C134.331 81.9778 134.399 82.074 134.522 82.1373C134.508 82.1175 134.487 82.0943 134.471 82.07C134.536 82.1528 134.624 82.192 134.731 82.151L134.648 82.1718C134.682 82.1726 134.712 82.1556 134.741 82.1531Z" fill="white"/>
<path d="M135.023 81.105C135.03 81.1128 135.031 81.1173 135.034 81.1263C135.045 81.1521 135.047 81.1611 135.023 81.105Z" fill="white"/>
<path d="M129.968 81.216C129.967 81.1314 129.966 81.0324 129.945 80.9481C129.921 80.8549 129.867 80.7553 129.825 80.6667C129.764 80.5404 129.693 80.4309 129.606 80.3205C129.389 80.04 129.171 79.7739 128.914 79.5271C128.752 79.3695 128.45 79.3511 128.284 79.5251C128.11 79.7058 128.106 79.9617 128.274 80.1414C128.367 80.2407 128.452 80.3467 128.537 80.4527C128.544 80.4604 128.551 80.4681 128.552 80.4726C128.572 80.4958 128.589 80.5245 128.611 80.5521C128.655 80.6118 128.696 80.677 128.737 80.7423C128.806 80.8618 128.871 80.9824 128.949 81.0996C128.986 81.1516 129.02 81.2091 129.059 81.2655C129.114 81.3506 129.179 81.4145 129.254 81.4806C129.391 81.5972 129.53 81.7606 129.732 81.7098C129.966 81.6509 129.977 81.4072 129.968 81.216Z" fill="white"/>
<path d="M127.429 73.9345C127.286 73.116 127.082 72.4405 126.721 71.6863C126.351 70.911 125.955 70.1516 125.529 69.4091C124.706 67.9828 123.784 66.6242 122.774 65.3254C122.696 65.2271 122.514 65.3578 122.589 65.4617C123.533 66.7912 124.39 68.1804 125.139 69.6251C125.508 70.3348 125.85 71.0558 126.163 71.7937C126.327 72.1726 126.473 72.5606 126.65 72.9361C126.827 73.3071 127.072 73.6419 127.283 73.9948C127.327 74.0734 127.445 74.02 127.429 73.9345Z" fill="white"/>
<path d="M124.584 75.5802C123.871 74.7636 123.016 74.0963 122.13 73.4648C121.244 72.8333 120.311 72.2657 119.342 71.7496C119.05 71.5965 118.778 72.0284 119.068 72.1915C120.01 72.719 120.918 73.3024 121.786 73.9385C122.647 74.5713 123.457 75.2691 124.308 75.9186C124.518 76.0735 124.735 75.7545 124.584 75.5802Z" fill="white"/>
<path d="M126.443 81.0882C124.974 80.4053 123.33 80.2903 121.713 80.3385C120.038 80.3873 118.374 80.6362 116.715 80.8884C116.465 80.9229 116.561 81.2858 116.808 81.2568C118.404 81.0486 120.009 80.8525 121.619 80.8344C123.209 80.8164 124.769 81.0424 126.316 81.3752C126.48 81.4093 126.619 81.1666 126.443 81.0882Z" fill="white"/>
<path d="M121.283 86.555C123.043 85.0404 124.963 83.7547 126.905 82.4777C127.053 82.384 126.931 82.1738 126.775 82.2508C124.655 83.2848 122.73 84.7085 120.951 86.2276C120.723 86.4266 121.054 86.7495 121.283 86.555Z" fill="white"/>
<path d="M125.376 89.5419C125.624 88.4361 125.985 87.3494 126.476 86.3149C126.96 85.2915 127.575 84.3437 128.148 83.364C128.239 83.2041 128.016 83.0148 127.882 83.1618C127.101 84.0099 126.531 85.0596 126.087 86.106C125.622 87.1859 125.286 88.3136 125.077 89.4612C125.042 89.6495 125.332 89.7369 125.376 89.5419Z" fill="white"/>
<path d="M135.827 75.3423C136.673 74.6337 137.47 73.8667 138.334 73.1724C139.216 72.4691 140.135 71.8177 141.093 71.2227C141.32 71.0804 141.121 70.7341 140.893 70.8764C139.936 71.4714 139.01 72.115 138.133 72.8172C137.238 73.524 136.357 74.2696 135.632 75.1505C135.52 75.2873 135.686 75.4626 135.827 75.3423Z" fill="white"/>
<path d="M145.863 74.2467C146.09 74.199 146.001 73.8628 145.777 73.9049C142.844 74.4591 139.877 75.6399 137.668 77.6591C137.573 77.7445 137.692 77.908 137.806 77.8369C140.309 76.211 142.905 74.859 145.863 74.2467Z" fill="white"/>
<path d="M143.965 77.986C142.438 77.9267 140.917 78.0641 139.436 78.4604C139.281 78.5041 139.338 78.7305 139.495 78.6957C140.963 78.4019 142.465 78.2457 143.957 78.2998C144.164 78.309 144.173 77.9953 143.965 77.986Z" fill="white"/>
<path d="M141.204 88.7823C139.002 87.9205 137.164 86.5469 135.456 84.9753C135.309 84.8376 135.111 85.0385 135.231 85.1876C136.698 87.0417 138.852 88.3501 141.079 89.1961C141.343 89.2949 141.464 88.8823 141.204 88.7823Z" fill="white"/>
<path d="M138.861 91.2555C138.332 91.2092 137.941 90.8357 137.621 90.4583C137.254 90.0267 136.924 89.567 136.593 89.1073C135.9 88.1537 135.249 87.1563 134.499 86.25C134.373 86.0977 134.142 86.2878 134.227 86.4505C134.822 87.613 135.661 88.6765 136.474 89.699C137.082 90.4665 137.744 91.5461 138.847 91.6272C139.095 91.6449 139.101 91.28 138.861 91.2555Z" fill="white"/>
<path d="M136.577 93.7514C135.201 93.1679 134.496 91.6082 133.856 90.3816C133.497 89.693 133.163 88.9886 132.866 88.2705C132.543 87.5115 132.275 86.7198 131.884 85.997C131.748 85.748 131.382 85.9204 131.426 86.1736C131.575 87.0187 131.936 87.8152 132.306 88.586C132.687 89.3823 133.108 90.1637 133.562 90.9226C134.276 92.1118 135.052 93.5263 136.435 94.0609C136.619 94.1326 136.757 93.8288 136.577 93.7514Z" fill="white"/>
<path d="M81.2588 80.7249C81.369 80.6783 81.4792 80.6317 81.585 80.5673C81.6665 80.5232 81.7379 80.458 81.7854 80.3752C81.8386 80.2958 81.8644 80.2043 81.8649 80.1098C81.8533 79.9664 81.8427 79.8274 81.7622 79.7014C81.7123 79.6195 81.6544 79.5444 81.5849 79.4816C81.4449 79.3517 81.2795 79.2564 81.0897 79.2003C80.9114 79.1508 80.6906 79.1261 80.5104 79.1856C80.336 79.2484 80.1786 79.321 80.045 79.4491C79.9033 79.5838 79.8208 79.7793 79.8242 79.9672C79.8226 80.0384 79.8531 80.1015 79.8952 80.1523C79.8533 80.2573 79.8263 80.3632 79.829 80.4711C79.8311 80.6924 79.9983 80.8722 80.2306 80.8845C80.328 80.8836 80.423 80.8928 80.5238 80.8863C80.6589 80.8806 80.7953 80.8604 80.9249 80.8325C81.0396 80.8037 81.1474 80.7671 81.2588 80.7249Z" fill="white"/>
<path d="M85.6434 82.8926C85.7571 82.8404 85.8583 82.7583 85.9516 82.6829C86.0528 82.6007 86.1359 82.5043 86.2007 82.3936C86.2436 82.312 86.2945 82.2237 86.318 82.1422C86.3448 82.0552 86.3523 81.9684 86.3643 81.8804C86.3765 81.7546 86.3568 81.618 86.3163 81.496C86.3187 81.4859 86.3267 81.4792 86.3302 81.4736C86.3642 81.3376 86.363 81.1774 86.2801 81.0614C86.1644 80.8922 86.0392 80.7633 85.8601 80.6526C85.7324 80.5714 85.5805 80.5105 85.4272 80.483C85.0784 80.415 84.7003 80.4441 84.3854 80.6272C84.0912 80.7956 83.8569 81.0859 83.7976 81.4123C83.7632 81.6051 83.7564 81.772 83.7999 81.964C83.8311 82.1073 83.876 82.247 83.9381 82.3777C83.9845 82.4651 84.0482 82.5435 84.1061 82.6186C84.147 82.665 84.1868 82.7069 84.2312 82.7476C84.3145 82.8069 84.3885 82.8685 84.4821 82.9111C84.5484 82.9416 84.6203 82.9754 84.6935 82.9948C84.7357 83.0077 84.785 83.0095 84.8307 83.0169C84.9977 83.0409 85.1157 83.0443 85.2991 83.017C85.416 82.997 85.5343 82.9437 85.6434 82.8926Z" fill="white"/>
<path d="M84.7807 83.0106C84.8321 83.0216 84.887 83.0269 84.943 83.0368C84.9076 83.0313 84.871 83.0214 84.831 83.0171C84.8161 83.0161 84.8013 83.015 84.7807 83.0106Z" fill="white"/>
<path d="M81.6053 86.6183C81.68 86.5853 81.7743 86.5144 81.817 86.4706C81.8642 86.4257 81.9207 86.3595 81.9554 86.3036C81.9739 86.2801 81.9983 86.222 82.0204 86.1739C82.033 86.166 82.0513 86.1614 82.064 86.1535C82.1353 86.1073 82.1929 86.0456 82.238 85.9728C82.3191 85.8297 82.3626 85.6536 82.3121 85.4916C82.2661 85.3285 82.1685 85.1926 82.0191 85.1028C81.905 85.0371 81.7748 84.9849 81.6468 84.9416C81.5188 84.8982 81.3827 84.8806 81.2476 84.8674C81.0222 84.8439 80.7975 84.8815 80.5797 84.9269C80.4868 84.9455 80.4041 84.9852 80.3362 85.0448C80.2603 85.0922 80.2027 85.1539 80.1587 85.2311C80.0707 85.3854 80.0318 85.5604 80.0754 85.7335C80.0888 85.7868 80.1068 85.8389 80.1236 85.8866C80.1607 85.9953 80.1978 86.1039 80.2557 86.198C80.2987 86.2721 80.3544 86.3383 80.409 86.4001C80.4237 86.42 80.4431 86.4387 80.4613 86.453C80.5182 86.5048 80.5923 86.5664 80.6653 86.6046C80.7315 86.6352 80.7978 86.6657 80.8675 86.6907C80.8778 86.6928 80.8937 86.6982 80.9097 86.7036C80.9875 86.7218 81.0744 86.7377 81.1558 86.7314C81.3379 86.7186 81.4434 86.692 81.6053 86.6183Z" fill="white"/>
</g>
<defs>
<clipPath id="clip0">
<rect width="139.158" height="228.961" fill="white" transform="translate(222.038) rotate(75.8741)"/>
</clipPath>
</defs>
</svg>
